<?xml version="1.0" encoding="UTF-8"?>
<svg id="Camada_2" data-name="Camada 2" xmlns="http://www.w3.org/2000/svg" viewBox="0 0 109.07 105.73">
  <defs>
    <style>
      .cls-1 {
        fill: #c7d300;
      }

      .cls-2 {
        fill: #4c3c8f;
      }

      .cls-3 {
        fill: #00353e;
      }
    </style>
  </defs>
  <g id="Camada_1-2" data-name="Camada 1">
    <g>
      <path class="cls-1" d="m75.94,88.08l-5.58-5.12-7.33-31.1s1.88-6.63,7.21-2.42c3.37,6.42,4.19,3.97,4.19,3.97l-.12-18.62h6.28l1.75-6.4h6.28l.81,4.65s6.13-1.83,8.31.35v7.1h4.03l.29.18.39,1.51v25.51s-.05,13.05-6.9,16.16c-1.29.59-1.44,3.23-1.44,3.23h-18.17v.99Z"/>
      <path class="cls-1" d="m19.69,83.86l-7.53-6.9L2.28,35.01s2.54-8.94,9.73-3.27c4.55,8.65,5.65,5.36,5.65,5.36l-.16-25.11h8.47l2.35-8.63h8.47l1.1,6.28s8.26-2.47,11.2.47v9.57h5.44l.4.24v1.8s-.01,34.41-.01,34.41c0,0,.68,17.19-8.56,21.38-1.74.79-1.51,5.01-1.51,5.01h-24.51l-.65,1.33Z"/>
      <path class="cls-3" d="m108.01,77.94c1.06-4.16,1.06-7.79,1.06-7.93v-25.32c0-.29-.04-2.89-1.97-4.77-.84-.81-2.33-1.78-4.74-1.78-.47,0-.91.03-1.32.1v-1.34c0-.29-.04-2.89-1.97-4.77-.84-.81-2.33-1.78-4.74-1.78-.63,0-1.2.07-1.71.18-.26-.72-.67-1.48-1.34-2.16-.84-.87-2.4-1.91-4.98-1.91-2.42,0-3.93.97-4.77,1.79-1.45,1.41-1.83,3.22-1.94,4.16-.43-.07-.87-.11-1.33-.11-2.42,0-3.93.97-4.77,1.79-1.93,1.88-1.97,4.47-1.97,4.74v9.06c-1.71-1.25-3.68-1.41-5.25-1-1.45.38-2.67,1.23-3.52,2.35v-25.44c0-.35-.05-3.52-2.39-5.8-1-.98-2.81-2.14-5.74-2.14-1.02,0-1.92.14-2.73.37v-.31c0-.16-.02-.32-.05-.47v-2.22c0-.35-.05-3.52-2.39-5.8-1-.98-2.81-2.14-5.74-2.14-1.16,0-2.15.18-2.98.46-.27-1.08-.8-2.35-1.87-3.45-1.02-1.05-2.89-2.29-6.06-2.29-2.95,0-4.77,1.17-5.78,2.16-2.34,2.28-2.39,5.43-2.39,5.77v.38c-.8-.24-1.71-.38-2.73-.38-2.95,0-4.77,1.17-5.78,2.16-2.34,2.28-2.39,5.43-2.39,5.77v14.54c-2.36-2.81-5.47-3.31-7.85-2.69-4,1.04-6.53,5.04-5.75,9.09,4.06,21.37,4.21,22.06,6.72,33.52l.16.73c1.36,6.23,6.83,10.57,9.43,12.33v1.21h-5.45c-1.51,0-2.73,1.18-2.73,2.64v15.86c0,1.46,1.22,2.64,2.73,2.64h43.61c1.51,0,2.73-1.18,2.73-2.64v-15.86c0-1.46-1.22-2.64-2.73-2.64h-2.75v-1.11c8.72-5.41,10.47-17.93,10.81-23.06,1.92,10.04,2.23,11.47,3.81,18.69l.12.53c.97,4.42,4.57,7.59,6.7,9.13h-3.07c-1.51,0-2.73,1.18-2.73,2.64v11.68c0,1.46,1.22,2.64,2.73,2.64h32.12c1.51,0,2.73-1.18,2.73-2.64v-11.68c0-1.46-1.22-2.64-2.73-2.64h-.95c3.09-2.21,5.36-5.91,6.61-10.82Zm-56.13,22.51H13.72v-10.57h38.16v10.57Zm5.43-42.25c.02,4.68-1.62,17.64-9.39,21.38-.93.45-1.51,1.36-1.51,2.37v2.64h-24.51v-2.64c0-.95-.52-1.82-1.37-2.29-.07-.04-6.93-4-8.18-9.7l-.16-.73c-2.49-11.4-2.64-12.08-6.69-33.38-.29-1.51.72-2.75,1.81-3.03,1.28-.33,2.55.81,3.38,3.08.67,1.81,1.47,3.71,2.32,5.72,1.34,3.16,2.72,6.43,3.54,9.32.36,1.28,1.54,2.11,2.9,1.93.63-.05,6.26-.29,9.25,7.33.54,1.36,2.11,2.05,3.52,1.53,1.41-.52,2.11-2.05,1.58-3.41-2.99-7.62-8.65-10.19-12.57-10.67-.58-1.74-1.29-3.53-2.02-5.31,0,0,0-.02,0-.03V15.85s.07-1.32.8-2.03c.15-.15.62-.6,1.92-.6,1.47,0,1.97.55,2.28,1.08.35.61.44,1.36.45,1.56v23.79c0,1.46,1.22,2.64,2.73,2.64s2.73-1.18,2.73-2.64V7.92s.07-1.32.8-2.03c.15-.15.62-.6,1.92-.6.97,0,1.67.21,2.07.61.56.56.66,1.53.66,1.89,0,.06,0,.07,0,.14v5.29h0v26.43c0,1.46,1.22,2.64,2.73,2.64s2.73-1.18,2.73-2.64V13.22h0c0-.06.08-1.34.8-2.04.15-.15.62-.6,1.92-.6,1.45,0,1.94.54,2.24,1.07.34.61.43,1.36.44,1.57v10.57c0,.16.02.32.05.47v20.04c0,1.46,1.22,2.64,2.73,2.64s2.73-1.18,2.73-2.64v-20.88c.05-.28.15-.69.35-1.08.31-.59.83-1.19,2.38-1.19,1.45,0,1.94.54,2.24,1.07.34.61.43,1.36.44,1.57v34.41Zm42.31,42.25h-26.67v-6.4h26.67v6.4Zm-20.65-11.68v-1.25c0-.95-.52-1.82-1.37-2.29-.05-.03-4.82-2.78-5.68-6.68l-.12-.53c-1.84-8.39-1.94-8.89-4.93-24.57-.14-.76.38-1.32.81-1.43.61-.16,1.25.81,1.63,1.83.5,1.35,1.09,2.75,1.72,4.24.98,2.31,1.99,4.7,2.58,6.79.36,1.28,1.55,2.11,2.91,1.93.53-.03,4.09-.04,6.05,4.96.54,1.36,2.11,2.05,3.52,1.53,1.41-.52,2.11-2.05,1.58-3.41-1.82-4.65-4.82-6.68-7.02-7.56-.86-.35-1.67-.55-2.36-.66-.39-1.13-.85-2.28-1.32-3.43v-19.38c0-.06.08-.71.38-1,.16-.16.47-.24.91-.24.4,0,1.23,0,1.29,1.28v17.49c0,1.46,1.22,2.64,2.73,2.64s2.73-1.18,2.73-2.64v-23.34c.05-1.28.89-1.28,1.29-1.28.49,0,.85.09,1.01.24.2.2.28.65.28.88,0,.06,0,.05,0,.13v3.89h0v19.47c0,1.46,1.22,2.64,2.73,2.64s2.73-1.18,2.73-2.64v-19.47h0c0-.09.08-.72.38-1.01.16-.16.47-.24.91-.24.39,0,1.21,0,1.26,1.27v7.77c0,.14.01.27.03.4v14.71c0,1.46,1.22,2.64,2.73,2.64s2.73-1.18,2.73-2.64v-15.38c.17-.97.89-.98,1.29-.98s1.21,0,1.26,1.27v25.32c0,3.33-1.15,12.54-6.52,15.12-.93.45-1.51,1.36-1.51,2.37v1.25h-16.61Z"/>
      <rect class="cls-2" x="13.72" y="95.16" width="38.16" height="5.29"/>
      <rect class="cls-2" x="72.95" y="97.25" width="26.67" height="3.2"/>
    </g>
  </g>
</svg>