<?xml version="1.0" encoding="UTF-8"?>
<svg id="Camada_2" data-name="Camada 2" xmlns="http://www.w3.org/2000/svg" viewBox="0 0 53.4 106.46">
  <defs>
    <style>
      .cls-1 {
        fill: #c7d300;
      }

      .cls-2 {
        fill: #4c3c8f;
      }

      .cls-3 {
        fill: #00353e;
      }

      .cls-4 {
        fill: #00a194;
      }
    </style>
  </defs>
  <g id="Camada_1-2" data-name="Camada 1">
    <g>
      <rect class="cls-1" x="2.71" y="55.12" width="4.98" height="11.29"/>
      <rect class="cls-1" x="45.74" y="55.12" width="4.98" height="11.29"/>
      <circle class="cls-1" cx="24.75" cy="13.43" r="7.87"/>
      <rect class="cls-2" x="14.51" y="61.65" width="26.11" height="42.23"/>
      <path class="cls-4" d="m2.46,59.24l10.63.15v3.31h26.58v-2.9h11.36l-1.45-27.55s-1.93-4.11-11.36-4.11H10.43S-.32,34.58,2.46,59.24Z"/>
      <g>
        <path class="cls-3" d="m42.95,26.35H10.45c-5.76,0-10.45,4.69-10.45,10.45v29.6c0,1.47,1.19,2.67,2.67,2.67h8.01v34.71c0,1.47,1.19,2.67,2.67,2.67h26.7c1.47,0,2.67-1.2,2.67-2.67v-34.71h8.01c1.48,0,2.67-1.2,2.67-2.67v-29.6c0-5.76-4.69-10.45-10.45-10.45Zm5.11,37.38h-5.34v-19.6c0-1.47-1.2-2.67-2.67-2.67s-2.67,1.2-2.67,2.67v56.98h-8.01v-34.71c0-1.47-1.19-2.67-2.67-2.67s-2.67,1.19-2.67,2.67v34.71h-8.01v-56.98c0-1.47-1.19-2.67-2.67-2.67s-2.67,1.2-2.67,2.67v19.6h-5.34v-26.93c0-2.82,2.29-5.11,5.11-5.11h32.5c2.82,0,5.11,2.29,5.11,5.11v26.93Z"/>
        <path class="cls-3" d="m39.88,13.18c0-7.27-5.91-13.18-13.18-13.18s-13.18,5.91-13.18,13.18,5.91,13.18,13.18,13.18,13.18-5.91,13.18-13.18Zm-13.18,7.84c-4.32,0-7.84-3.52-7.84-7.84s3.52-7.84,7.84-7.84,7.84,3.52,7.84,7.84-3.52,7.84-7.84,7.84Z"/>
      </g>
    </g>
  </g>
</svg>