<?xml version="1.0" encoding="UTF-8"?>
<svg id="Camada_2" data-name="Camada 2" xmlns="http://www.w3.org/2000/svg" viewBox="0 0 106.87 107">
  <defs>
    <style>
      .cls-1 {
        fill: #c7d300;
      }

      .cls-2 {
        fill: #4c3c90;
      }

      .cls-3 {
        fill: #4c3c8f;
      }

      .cls-4 {
        fill: #00353e;
      }

      .cls-5 {
        fill: #00a295;
      }
    </style>
  </defs>
  <g id="Camada_1-2" data-name="Camada 1">
    <g>
      <polygon class="cls-3" points="5.34 50.87 5.34 46.79 53.43 6.17 101.52 46.79 101.52 50.3 55.15 11.44 51.7 11.46 5.34 50.87"/>
      <polygon class="cls-5" points="96.18 101.66 96.27 52.87 57.12 19.27 35.34 37.79 35.34 101.66 96.18 101.66"/>
      <rect class="cls-2" x="21.35" y="61.58" width="21.41" height="40.07"/>
      <rect class="cls-1" x="64.12" y="69.6" width="21.37" height="16.03"/>
      <circle class="cls-1" cx="53.86" cy="36.27" r="2.44"/>
      <path class="cls-4" d="m105.92,43.51L55.16.63c-1-.84-2.45-.84-3.45,0L.95,43.51c-.6.51-.95,1.25-.95,2.04v8.01c0,1.48,1.2,2.67,2.67,2.67h2.67v48.09c0,1.48,1.2,2.67,2.67,2.67h90.84c1.48,0,2.67-1.2,2.67-2.67v-48.17l2.76-.09c1.44-.05,2.59-1.23,2.59-2.67v-7.85c0-.79-.35-1.53-.95-2.04ZM53.43,6.17l48.09,40.62v3.51L55.15,11.44c-1-.84-2.45-.83-3.45.01L5.34,50.87v-4.08L53.43,6.17ZM21.35,101.66v-40.07h21.41v40.07h-21.41Zm74.83,0h-48.07v-42.75c0-1.48-1.2-2.67-2.67-2.67h-26.76c-1.48,0-2.67,1.2-2.67,2.67v42.75h-5.32v-48.09c0-.07,0-.14-.01-.22L53.45,16.99l42.83,35.88c-.06.22-.09.45-.09.7v48.09Z"/>
      <path class="cls-4" d="m88.16,64.25h-26.72c-1.48,0-2.67,1.2-2.67,2.67v21.37c0,1.48,1.2,2.67,2.67,2.67h26.72c1.48,0,2.67-1.2,2.67-2.67v-21.37c0-1.48-1.2-2.67-2.67-2.67Zm-2.67,10.69h-7.92v-5.34h7.92v5.34Zm-13.26-5.34v5.34h-8.11v-5.34h8.11Zm-8.11,10.69h8.11v5.34h-8.11v-5.34Zm13.46,5.34v-5.34h7.92v5.34h-7.92Z"/>
      <path class="cls-4" d="m53.43,29.52c-3.68,0-6.68,3-6.68,6.68s3,6.68,6.68,6.68,6.68-3,6.68-6.68-3-6.68-6.68-6.68Zm0,8.01c-.74,0-1.34-.6-1.34-1.34s.6-1.34,1.34-1.34,1.34.6,1.34,1.34-.6,1.34-1.34,1.34Z"/>
    </g>
  </g>
</svg>