<?xml version="1.0" encoding="UTF-8"?>
<svg id="Camada_2" data-name="Camada 2" xmlns="http://www.w3.org/2000/svg" viewBox="0 0 105.26 108">
  <defs>
    <style>
      .cls-1 {
        fill: #fff;
      }

      .cls-2 {
        fill: #4c3c8f;
      }

      .cls-3 {
        fill: #00353f;
      }
    </style>
  </defs>
  <g id="Camada_1-2" data-name="Camada 1">
    <g>
      <polygon class="cls-2" points="5.26 17.17 100 18.19 100 102.53 5.26 102.52 5.26 17.17"/>
      <path class="cls-1" d="m13.01,12.77s14.26-6.37,36.95.31l.15,85.53s-20.15-6.1-37.09-3.88V12.77Z"/>
      <path class="cls-1" d="m92.11,12.77s-14.26-6.37-36.95.31l-.15,85.53s20.15-6.1,37.09-3.88V12.77Z"/>
      <path class="cls-3" d="m2.63,108c-1.45,0-2.63-1.21-2.63-2.7V9.81c0-1.49,1.18-2.7,2.63-2.7h6.83c1.45,0,2.63,1.21,2.63,2.7s-1.18,2.7-2.63,2.7h-4.2v92.79c0,1.49-1.18,2.7-2.63,2.7Z"/>
      <path class="cls-3" d="m52.49,105.13c-.38,0-.76-.09-1.13-.27-15.54-7.9-40.37-5.28-40.62-5.25-1.4.15-2.64-.88-2.79-2.31-.15-1.43.86-2.71,2.25-2.86.27-.03,6.69-.72,15.23-.39,11.58.46,21.07,2.53,28.19,6.15,1.26.64,1.77,2.2,1.15,3.49-.44.92-1.34,1.45-2.27,1.45Z"/>
      <path class="cls-3" d="m55.3,105.13c-.89,0-1.75-.48-2.22-1.33-.68-1.25-.25-2.84.98-3.54,8.94-5.12,19.4-6.5,26.6-6.76,5.83-.21,13.76.33,15.24,1.33.79.54,1.24,1.5,1.14,2.47-.15,1.43-1.4,2.46-2.79,2.31-.27-.03-.52-.1-.75-.2-2.86-.68-22.61-2.83-36.96,5.4-.39.22-.82.33-1.24.33Zm36.69-8.39c-.06.53.04,1,.23,1.39-.19-.42-.28-.9-.23-1.39Z"/>
      <path class="cls-3" d="m52.5,107.83c-1.4,0-2.54-1.16-2.54-2.6V8.19c-12.91-3.47-22.46-3.29-28.28-2.5-4.23.58-7.13,1.55-8.67,2.18v89.14c0,1.44-1.14,2.6-2.54,2.6s-2.54-1.16-2.54-2.6V6.2c0-.94.49-1.81,1.29-2.27.61-.35,15.25-8.53,43.95-.24,1.09.32,1.85,1.34,1.85,2.5v99.02c0,1.44-1.14,2.6-2.54,2.6Z"/>
      <path class="cls-3" d="m52.64,107.83c-1.4,0-2.54-1.16-2.54-2.6V6.2c0-1.16.76-2.19,1.85-2.5,28.7-8.29,43.34-.11,43.95.24.8.46,1.29,1.33,1.29,2.27v90.82c0,1.44-1.14,2.6-2.54,2.6s-2.54-1.16-2.54-2.6V7.89c-3.84-1.55-16.23-5.26-36.95.31v97.03c0,1.44-1.14,2.6-2.54,2.6Z"/>
      <path class="cls-3" d="m102.63,107.92H2.66c-1.45,0-2.63-1.21-2.63-2.7s1.18-2.7,2.63-2.7h97.34V13.52h-3.79c-1.45,0-2.63-1.21-2.63-2.7s1.18-2.7,2.63-2.7h6.42c1.45,0,2.63,1.21,2.63,2.7v94.4c0,1.49-1.18,2.7-2.63,2.7Z"/>
      <path class="cls-3" d="m43.22,26.73c-.32,0-.64-.06-.95-.19-11.7-4.85-20.95-.28-21.34-.08-1.25.64-2.77.12-3.4-1.17-.62-1.28-.13-2.84,1.12-3.48.47-.24,11.61-5.86,25.52-.09,1.3.54,1.93,2.06,1.4,3.39-.4,1.01-1.35,1.63-2.35,1.63Z"/>
      <path class="cls-3" d="m43.4,37.76c-.32,0-.64-.06-.95-.19-11.8-4.89-21.24-.14-21.33-.09-1.25.65-2.78.13-3.41-1.15s-.13-2.85,1.12-3.49c.47-.24,11.61-5.86,25.52-.09,1.3.54,1.93,2.06,1.4,3.39-.4,1.01-1.35,1.63-2.35,1.63Z"/>
      <path class="cls-3" d="m43.22,48.86c-.32,0-.64-.06-.95-.19-11.8-4.9-21.24-.14-21.33-.09-1.25.65-2.78.13-3.41-1.15-.63-1.28-.13-2.85,1.12-3.49.47-.24,11.61-5.86,25.52-.09,1.3.54,1.93,2.06,1.4,3.39-.4,1.01-1.35,1.63-2.35,1.63Z"/>
      <path class="cls-3" d="m43.4,59.97c-.32,0-.64-.06-.95-.19-11.8-4.9-21.24-.14-21.33-.09-1.25.65-2.78.13-3.41-1.15s-.13-2.85,1.12-3.49c.47-.24,11.61-5.86,25.52-.09,1.3.54,1.93,2.06,1.4,3.39-.4,1.01-1.35,1.63-2.35,1.63Z"/>
      <path class="cls-3" d="m43.22,71.08c-.32,0-.64-.06-.95-.19-11.8-4.89-21.24-.14-21.33-.09-1.25.65-2.78.13-3.41-1.15-.63-1.28-.13-2.85,1.12-3.49.47-.24,11.61-5.86,25.52-.09,1.3.54,1.93,2.06,1.4,3.39-.4,1.01-1.35,1.63-2.35,1.63Z"/>
      <path class="cls-3" d="m43.4,81.56c-.32,0-.64-.06-.95-.19-11.7-4.85-20.95-.28-21.34-.08-1.25.64-2.77.12-3.4-1.17s-.13-2.84,1.12-3.48c.47-.24,11.61-5.86,25.52-.09,1.3.54,1.93,2.06,1.4,3.39-.4,1.01-1.35,1.63-2.35,1.63Z"/>
      <path class="cls-3" d="m62.03,26.73c-1,0-1.95-.61-2.35-1.63-.53-1.33.1-2.85,1.4-3.39,13.91-5.77,25.05-.15,25.52.09,1.25.65,1.75,2.21,1.12,3.49-.63,1.28-2.15,1.8-3.4,1.15-.41-.21-9.65-4.76-21.34.09-.31.13-.63.19-.95.19Z"/>
      <path class="cls-3" d="m61.85,37.76c-1,0-1.95-.61-2.35-1.63-.53-1.33.1-2.85,1.4-3.39,13.91-5.77,25.05-.15,25.52.09,1.25.65,1.75,2.21,1.12,3.49-.63,1.28-2.15,1.8-3.4,1.15-.41-.21-9.65-4.76-21.34.09-.31.13-.63.19-.95.19Z"/>
      <path class="cls-3" d="m62.03,48.86c-1,0-1.95-.61-2.35-1.63-.53-1.33.1-2.85,1.4-3.39,13.91-5.77,25.05-.15,25.52.09,1.25.65,1.75,2.21,1.12,3.49-.63,1.28-2.15,1.8-3.4,1.15-.41-.21-9.65-4.76-21.34.09-.31.13-.63.19-.95.19Z"/>
      <path class="cls-3" d="m61.85,59.97c-1,0-1.95-.61-2.35-1.63-.53-1.33.1-2.85,1.4-3.39,13.91-5.77,25.05-.15,25.52.09,1.25.65,1.75,2.21,1.12,3.49-.63,1.28-2.15,1.8-3.4,1.15-.41-.21-9.65-4.76-21.34.09-.31.13-.63.19-.95.19Z"/>
      <path class="cls-3" d="m62.03,71.08c-1,0-1.95-.61-2.35-1.63-.53-1.33.1-2.85,1.4-3.39,13.91-5.77,25.05-.15,25.52.09,1.25.65,1.75,2.21,1.12,3.49-.63,1.28-2.15,1.8-3.4,1.15-.41-.21-9.65-4.76-21.34.09-.31.13-.63.19-.95.19Z"/>
      <path class="cls-3" d="m61.85,81.56c-1,0-1.95-.61-2.35-1.63-.53-1.33.1-2.85,1.4-3.39,13.91-5.77,25.05-.15,25.52.09,1.25.65,1.75,2.21,1.12,3.49-.63,1.28-2.15,1.8-3.4,1.15-.41-.21-9.66-4.76-21.34.09-.31.13-.63.19-.95.19Z"/>
    </g>
  </g>
</svg>