<?xml version="1.0" encoding="UTF-8"?>
<svg id="Camada_2" data-name="Camada 2" xmlns="http://www.w3.org/2000/svg" viewBox="0 0 98.09 109.01">
  <defs>
    <style>
      .cls-1 {
        fill: #c7d300;
      }

      .cls-2 {
        fill: #fff;
      }

      .cls-3 {
        fill: #4c3c8f;
      }

      .cls-4 {
        fill: #00353e;
      }

      .cls-5 {
        fill: #79b729;
      }

      .cls-6 {
        fill: #00a194;
      }
    </style>
  </defs>
  <g id="Camada_1-2" data-name="Camada 1">
    <g>
      <rect class="cls-2" x="25.2" y="30.01" width="48.39" height="39.68"/>
      <g>
        <rect class="cls-1" x="7.8" y="59.98" width="5.26" height="9.93" transform="translate(.36 -.06) rotate(.32)"/>
        <rect class="cls-1" x="89.41" y="50.49" width="5.26" height="19.87" transform="translate(.34 -.51) rotate(.32)"/>
        <rect class="cls-5" x="29.2" y="48.47" width="5.26" height="19.91" transform="translate(.32 -.18) rotate(.32)"/>
        <rect class="cls-5" x="63.27" y="48.66" width="5.26" height="19.91" transform="translate(.33 -.36) rotate(.32)"/>
        <ellipse class="cls-1" cx="27.48" cy="19.58" rx="9.93" ry="8.03" transform="translate(7.75 46.95) rotate(-89.68)"/>
        <ellipse class="cls-5" cx="51.65" cy="13.48" rx="9.93" ry="8.03" transform="translate(37.88 65.06) rotate(-89.68)"/>
        <ellipse class="cls-1" cx="76.15" cy="19.85" rx="9.93" ry="8.03" transform="translate(55.88 95.89) rotate(-89.68)"/>
        <polygon class="cls-5" points="73.87 36.39 73.89 67.73 83.47 67.08 84.88 51.63 95.2 51.69 94.11 37.08 85.56 35.28 73.87 36.39"/>
        <path class="cls-6" d="m2.46,62.66l10.71.06-.05,8.37,19.3.11-.79-2.34-7.39-2.18.56-30.56s-18.49-.3-18.1-.88-3.91,3.09-3.55,7.57c.36,4.48-.69,19.85-.69,19.85Z"/>
        <polygon class="cls-3" points="14.15 66.7 34.44 66.81 34.25 100.76 13.96 100.33 14.15 66.7"/>
        <polygon class="cls-6" points="63.18 66.97 83.47 67.08 83.28 101.04 62.99 100.6 63.18 66.97"/>
        <polygon class="cls-3" points="37 61.61 62.22 61.75 61.98 105.99 36.76 105.43 37 61.61"/>
        <path class="cls-4" d="m90.23,32.98l-11.98-.07c5.27-1.88,9.07-6.9,9.1-12.81.04-7.54-6.06-13.71-13.6-13.76-4.61-.03-8.7,2.24-11.2,5.73C61.85,5.33,56.15.04,49.22,0c-6.85-.04-12.54,5.06-13.43,11.68-2.48-3.37-6.46-5.58-10.96-5.6-7.54-.04-13.71,6.06-13.76,13.6-.03,5.91,3.71,10.98,8.96,12.91l-11.91-.07c-4.36-.02-7.93,3.5-7.95,7.86L0,70.6c0,1.5,1.2,2.73,2.71,2.74l8.18.05-.15,27.21c0,1.5,1.2,2.73,2.71,2.74l18.8.1v2.67c-.02,1.51,1.19,2.74,2.7,2.75l27.32.15c1.51,0,2.74-1.21,2.75-2.72v-2.67s19.09.11,19.09.11c1.5,0,2.73-1.2,2.74-2.71l.15-27.21,8.18.05c1.5,0,2.73-1.2,2.74-2.71l.17-30.21c.02-4.36-3.5-7.93-7.86-7.95Zm-16.51-21.19c4.54.03,8.21,3.74,8.19,8.28s-3.74,8.21-8.28,8.19c-4.54-.03-8.21-3.74-8.19-8.28.03-4.54,3.74-8.21,8.28-8.19Zm-24.53-6.33c4.42.02,8,3.64,7.97,8.06-.02,4.42-3.64,8-8.06,7.98-4.42-.02-8-3.64-7.97-8.06s3.64-8,8.06-7.97Zm-.12,21.5c4.51.03,8.52-2.18,10.99-5.58.2,2.05.86,3.97,1.87,5.65l-12.86-.07-12.65-.07c.99-1.61,1.65-3.43,1.9-5.39,2.44,3.29,6.35,5.43,10.75,5.46Zm-32.55-7.26c.03-4.54,3.74-8.21,8.28-8.19s8.21,3.74,8.19,8.28-3.74,8.21-8.28,8.19c-4.54-.03-8.21-3.74-8.19-8.28Zm10.46,78.26l.11-19.13c0-1.5-1.2-2.73-2.71-2.74-1.5,0-2.73,1.2-2.74,2.71l-.11,19.13-5.33-.03.15-27.21s0-.03,0-.04l.12-21.64c0-1.5-1.2-2.73-2.71-2.74-1.5,0-2.73,1.2-2.74,2.71l-.11,18.96-5.46-.03.15-27.49c0-1.36,1.12-2.46,2.48-2.45l13.6.08-.16,29.75c0,1.51,1.21,2.74,2.72,2.75l8.2.05-.15,27.41-5.3-.03Zm32.92-52.75l-.32,58.31-8.2-.05.2-35.52c0-1.51-1.21-2.74-2.72-2.75-1.51,0-2.74,1.21-2.75,2.72l-.2,35.52-8.2-.05.32-58.31c0-1.51-1.21-2.74-2.72-2.75-1.51,0-2.74,1.21-2.75,2.72l-.11,20.06-5.47-.03.15-27.56c.02-2.88,2.38-5.22,5.26-5.2l33.26.18c2.88.02,5.22,2.37,5.2,5.26l-.15,27.56-5.46-.03.11-20.06c0-1.51-1.21-2.74-2.72-2.75s-2.74,1.21-2.75,2.72Zm32.6,23.17l-5.46-.03.11-18.96c0-1.5-1.2-2.73-2.71-2.74s-2.73,1.2-2.74,2.71l-.12,21.64s0,.03,0,.04l-.15,27.21-5.46-.03.11-19.16c0-1.5-1.2-2.73-2.71-2.74-1.5,0-2.73,1.2-2.74,2.71l-.11,19.16-5.46-.03.15-27.41,8.2.05c1.51,0,2.74-1.21,2.75-2.72l.16-29.75,13.87.08c1.36,0,2.46,1.12,2.45,2.48l-.15,27.49Z"/>
      </g>
    </g>
  </g>
</svg>