<?xml version="1.0" encoding="UTF-8"?>
<svg id="Camada_2" data-name="Camada 2" xmlns="http://www.w3.org/2000/svg" viewBox="0 0 110.97 105">
  <defs>
    <style>
      .cls-1 {
        fill: #c7d300;
      }

      .cls-2 {
        fill: #4c3c8f;
      }

      .cls-3 {
        fill: #00353e;
      }

      .cls-4 {
        fill: #79b729;
      }

      .cls-5 {
        fill: #00a194;
      }
    </style>
  </defs>
  <g id="Camada_1-2" data-name="Camada 1">
    <g>
      <ellipse class="cls-1" cx="19.7" cy="58.57" rx="8.1" ry="9.93"/>
      <ellipse class="cls-4" cx="57.94" cy="14.6" rx="8.1" ry="9.93"/>
      <ellipse class="cls-1" cx="97.66" cy="58.1" rx="8.1" ry="9.93"/>
      <rect class="cls-5" x="9.71" y="75.12" width="20.8" height="15.6"/>
      <rect class="cls-5" x="48.48" y="31.38" width="20.8" height="15.6"/>
      <rect class="cls-2" x="87.73" y="75.35" width="20.8" height="15.6"/>
      <g>
        <path class="cls-3" d="m31.22,16.93c-6.9,3.67-12.73,9.12-16.87,15.76-.81,1.3-.41,3.01.88,3.82.46.28.96.42,1.46.42.92,0,1.83-.46,2.35-1.3,3.63-5.81,8.74-10.58,14.78-13.8,1.35-.72,1.86-2.4,1.14-3.75-.72-1.35-2.4-1.86-3.75-1.14Z"/>
        <path class="cls-3" d="m71,96.17c-4.95,2.18-10.22,3.29-15.68,3.29s-10.89-1.14-15.91-3.39c-1.4-.63-3.04,0-3.66,1.39-.63,1.4,0,3.04,1.39,3.66,5.73,2.57,11.84,3.88,18.17,3.88s12.26-1.26,17.91-3.76c1.4-.62,2.03-2.25,1.42-3.65-.62-1.4-2.25-2.04-3.65-1.42Z"/>
        <path class="cls-3" d="m91.79,35.29c.53.83,1.42,1.28,2.34,1.28.51,0,1.03-.14,1.49-.44,1.29-.82,1.67-2.54.85-3.83-4.26-6.68-10.23-12.11-17.27-15.71-1.36-.7-3.03-.16-3.73,1.2-.7,1.36-.16,3.03,1.2,3.73,6.16,3.15,11.39,7.91,15.12,13.76Z"/>
        <path class="cls-3" d="m24.8,71.51h-7.49c7.3-.38,13.12-6.44,13.12-13.84s-6.22-13.86-13.86-13.86-13.86,6.22-13.86,13.86,5.82,13.45,13.12,13.84H7.33c-4.11,0-7.33,2.62-7.33,5.97v12.48c0,.91.37,1.78,1.03,2.44.74.73,1.8,1.16,2.91,1.16h.02l25.4-.11c2.2,0,3.92-1.59,3.92-3.59v-11.57c0-3.8-3.72-6.78-8.47-6.78Zm-16.54-13.84c0-4.59,3.73-8.32,8.32-8.32s8.32,3.73,8.32,8.32-3.73,8.32-8.32,8.32-8.32-3.73-8.32-8.32Zm19.47,30.24l-22.19.09v-10.39c.17-.19.79-.57,1.79-.57h17.47c1.89,0,2.93.93,2.93,1.24v9.63Z"/>
        <path class="cls-3" d="m42.55,49.74h.02l25.4-.1c2.2,0,3.92-1.59,3.92-3.59v-11.57c0-3.8-3.72-6.78-8.47-6.78h-7.49c7.3-.38,13.12-6.44,13.12-13.84S62.83,0,55.19,0s-13.86,6.22-13.86,13.86,5.82,13.45,13.12,13.84h-8.51c-4.11,0-7.33,2.62-7.33,5.97v12.48c0,.91.37,1.78,1.03,2.44.74.73,1.8,1.16,2.91,1.16Zm4.32-35.88c0-4.59,3.73-8.32,8.32-8.32s8.32,3.73,8.32,8.32-3.73,8.32-8.32,8.32-8.32-3.73-8.32-8.32Zm-2.72,19.94c.17-.19.79-.57,1.79-.57h17.47c1.89,0,2.93.93,2.93,1.24v9.63l-22.19.09v-10.39Z"/>
        <path class="cls-3" d="m102.5,71.51h-7.49c7.3-.38,13.12-6.44,13.12-13.84s-6.22-13.86-13.86-13.86-13.86,6.22-13.86,13.86,5.82,13.45,13.12,13.84h-8.51c-4.11,0-7.33,2.62-7.33,5.97v12.48c0,.91.37,1.78,1.03,2.44.74.73,1.8,1.16,2.91,1.16h.02l25.4-.11c2.2,0,3.92-1.59,3.92-3.59v-11.57c0-3.8-3.72-6.78-8.47-6.78Zm-16.54-13.84c0-4.59,3.73-8.32,8.32-8.32s8.32,3.73,8.32,8.32-3.73,8.32-8.32,8.32-8.32-3.73-8.32-8.32Zm19.47,30.24l-22.19.09v-10.39c.17-.19.79-.57,1.79-.57h17.47c1.89,0,2.93.93,2.93,1.24v9.63Z"/>
      </g>
    </g>
  </g>
</svg>