<svg xmlns="http://www.w3.org/2000/svg" viewBox="0 0 126.14 128"><defs><style>.cls-1{opacity:0.05;}.cls-2{fill:#00353e;}</style></defs><g id="Layer_2" data-name="Layer 2"><g id="Camada_1" data-name="Camada 1"><g class="cls-1"><path class="cls-2" d="M77.42,101.48h0a3.25,3.25,0,0,1-2.26-.93l-9-9a3.21,3.21,0,0,1,0-4.52l39.54-39.54a3.19,3.19,0,0,1,4.52,0l9,9a3.19,3.19,0,0,1,0,4.52L79.68,100.55A3.23,3.23,0,0,1,77.42,101.48ZM72.9,89.25l4.52,4.52,35-35-4.52-4.52Z"/><path class="cls-2" d="M55.33,115a3.19,3.19,0,0,1-2.76-4.79L65.62,87.64A3.21,3.21,0,0,1,68,86.08a3.16,3.16,0,0,1,2.67.91l9,9a3.18,3.18,0,0,1-.59,5L57,114.52A3.15,3.15,0,0,1,55.33,115ZM69.07,94.45l-4.67,8,7.89-4.82Z"/><path class="cls-2" d="M115.77,63.64a3.19,3.19,0,0,1-2.26-.94L104,53.16a3.19,3.19,0,0,1,0-4.52l7.17-7.17a3.19,3.19,0,0,1,4.52,0L125.2,51a3.19,3.19,0,0,1,0,4.52L118,62.7A3.19,3.19,0,0,1,115.77,63.64Zm-5-12.74,5,5,2.65-2.65-5-5Z"/><path class="cls-2" d="M3.2,128A3.19,3.19,0,0,1,0,124.8V3.2A3.2,3.2,0,0,1,3.2,0H99.05a3.2,3.2,0,0,1,3.2,3.2v55H95.86V6.39H6.39V121.6l89.47-.19V76.28h6.39V124.6a3.19,3.19,0,0,1-3.19,3.19L3.2,128Z"/><path class="cls-2" d="M20.14,116.67a3.19,3.19,0,0,1-1.31-6.11l4.51-2c1.77-.9,3.62-1.74,5.53-2.49,2.68-1,6.69-2.33,10.64-1.34a15.28,15.28,0,0,1,5.23,2.67,7.6,7.6,0,0,0,3.49,1.73,13.28,13.28,0,0,0,2.85-.17,12.65,12.65,0,0,1,6.11.24l-2.14,6a8.46,8.46,0,0,0-3.15.07,17.41,17.41,0,0,1-4.39.19,13.48,13.48,0,0,1-6.45-2.85,9.9,9.9,0,0,0-3.11-1.7c-1.63-.41-3.83,0-6.74,1.09-1.36.54-2.69,1.12-4,1.74l0,.05-1.15.52c-.37.18-.73.38-1.08.57l-.31.15-3.36,1.4A3.27,3.27,0,0,1,20.14,116.67Z"/><path class="cls-2" d="M79.89,32H16.2a3.2,3.2,0,1,1,0-6.39H79.89a3.2,3.2,0,0,1,0,6.39Z"/><path class="cls-2" d="M61.5,44.82H16.2a3.2,3.2,0,1,1,0-6.39H61.5a3.2,3.2,0,0,1,0,6.39Z"/><path class="cls-2" d="M79.89,64H15.37a3.2,3.2,0,0,1,0-6.39H79.89a3.2,3.2,0,0,1,0,6.39Z"/><path class="cls-2" d="M79.84,77.19H16a3.2,3.2,0,1,1,0-6.39H79.84a3.2,3.2,0,1,1,0,6.39Z"/></g></g></g></svg>