<?xml version="1.0" encoding="UTF-8" standalone="no"?>
<svg
   id="Camada_2"
   viewBox="0 0 648.69 444.9"
   version="1.1"
   sodipodi:docname="businesInteligence.svg"
   inkscape:version="1.3.2 (091e20e, 2023-11-25, custom)"
   xmlns:inkscape="http://www.inkscape.org/namespaces/inkscape"
   xmlns:sodipodi="http://sodipodi.sourceforge.net/DTD/sodipodi-0.dtd"
   xmlns="http://www.w3.org/2000/svg"
   xmlns:svg="http://www.w3.org/2000/svg">
  <sodipodi:namedview
     id="namedview227"
     pagecolor="#505050"
     bordercolor="#eeeeee"
     borderopacity="1"
     inkscape:showpageshadow="0"
     inkscape:pageopacity="0"
     inkscape:pagecheckerboard="0"
     inkscape:deskcolor="#505050"
     inkscape:zoom="1.2921506"
     inkscape:cx="195.7976"
     inkscape:cy="259.64465"
     inkscape:window-width="1920"
     inkscape:window-height="1009"
     inkscape:window-x="2992"
     inkscape:window-y="151"
     inkscape:window-maximized="1"
     inkscape:current-layer="g18" />
  <defs
     id="defs1">
    <style
       id="style1">
      .cls-1 {
        opacity: .6;
      }

      .cls-2 {
        fill: #fafafa;
      }

      .cls-3 {
        fill: #263238;
      }

      .cls-4 {
        opacity: .3;
      }

      .cls-5 {
        fill: #fff;
      }

      .cls-6 {
        opacity: .4;
      }

      .cls-7 {
        fill: #c9d200;
      }

      .cls-8 {
        fill: #e0e0e0;
      }

      .cls-9 {
        fill: #007c6f;
      }

      .cls-10 {
        fill: #ae7461;
      }

      .cls-11 {
        fill: #455a64;
      }

      .cls-12 {
        fill: #6f4439;
      }

      .cls-13 {
        fill: #ffbf9d;
      }

      .cls-14 {
        opacity: .2;
      }

      .cls-15 {
        fill: #ebebeb;
      }

      .cls-16 {
        fill: #ff9a6c;
      }

      .cls-17 {
        fill: #00ae9d;
      }

      .cls-18 {
        fill: #49479d;
      }

      .cls-19 {
        fill: #f5f5f5;
      }
    </style>
  </defs>
  <g
     id="Background_Complete">
    <g
       id="g18">
      <g
         id="g12" />
    </g>
    <path
       class="cls-8"
       d="M116.59,150.73c3.79-1.47,7.72-2.4,11.68-2.8l4.13-10.34,18.19,2.88.73,11.11c3.64,1.61,7.09,3.7,10.24,6.27l10.23-4.39,10.83,14.9-7.33,8.37c1.47,3.8,2.4,7.72,2.8,11.68l10.34,4.12-2.88,18.19-11.11.73c-1.61,3.64-3.7,7.08-6.27,10.24l4.39,10.23-14.9,10.83-8.37-7.33c-3.79,1.47-7.72,2.4-11.68,2.8l-4.13,10.34-18.19-2.88-.73-11.11c-3.64-1.61-7.08-3.7-10.24-6.27l-10.23,4.39-10.83-14.9,7.33-8.37c-1.47-3.8-2.4-7.72-2.8-11.68l-10.34-4.13,2.88-18.19,11.11-.74c1.61-3.64,3.7-7.08,6.27-10.24l-4.39-10.23,14.9-10.83,8.37,7.33h0ZM122,176.6c-8.83,6.42-10.78,18.77-4.36,27.6,6.42,8.83,18.78,10.78,27.6,4.36,8.83-6.42,10.78-18.77,4.36-27.6-6.42-8.83-18.77-10.78-27.6-4.36Z"
       id="path19" />
    <path
       class="cls-19"
       d="M44.12,248.08c2.42-.94,4.92-1.53,7.44-1.79l2.63-6.59,11.59,1.83.47,7.08c2.32,1.02,4.52,2.36,6.53,3.99l6.52-2.8,6.9,9.5-4.67,5.33c.94,2.42,1.53,4.92,1.79,7.44l6.59,2.63-1.83,11.59-7.08.47c-1.02,2.32-2.36,4.51-3.99,6.53l2.8,6.52-9.49,6.9-5.33-4.67c-2.42.94-4.92,1.53-7.44,1.79l-2.63,6.59-11.59-1.83-.47-7.08c-2.32-1.02-4.52-2.36-6.53-3.99l-6.52,2.8-6.9-9.5,4.67-5.33c-.94-2.42-1.53-4.92-1.79-7.44l-6.59-2.63,1.83-11.59,7.08-.47c1.02-2.32,2.36-4.51,3.99-6.53l-2.8-6.52,9.49-6.9,5.34,4.67h0ZM47.57,264.56c-5.63,4.09-6.87,11.97-2.78,17.59,4.09,5.63,11.97,6.87,17.59,2.78,5.63-4.09,6.87-11.96,2.78-17.59-4.09-5.63-11.96-6.87-17.59-2.78Z"
       id="path20" />
    <path
       class="cls-19"
       d="M376.44,230.99c2.23-.86,4.54-1.41,6.87-1.65l2.43-6.08,10.7,1.69.43,6.53c2.14.94,4.17,2.18,6.02,3.69l6.01-2.58,6.37,8.76-4.31,4.92c.86,2.23,1.41,4.54,1.65,6.87l6.08,2.43-1.69,10.7-6.53.43c-.94,2.14-2.18,4.17-3.69,6.02l2.58,6.01-8.76,6.37-4.92-4.31c-2.23.86-4.54,1.41-6.87,1.65l-2.43,6.08-10.7-1.69-.43-6.53c-2.14-.94-4.17-2.18-6.02-3.69l-6.01,2.58-6.37-8.76,4.31-4.92c-.86-2.23-1.41-4.54-1.65-6.87l-6.08-2.43,1.69-10.7,6.53-.43c.94-2.14,2.18-4.17,3.69-6.02l-2.58-6.01,8.76-6.37,4.92,4.31h0ZM379.62,246.2c-5.19,3.77-6.34,11.04-2.57,16.23,3.77,5.19,11.04,6.34,16.23,2.57,5.19-3.77,6.34-11.04,2.57-16.23-3.77-5.19-11.04-6.34-16.23-2.57Z"
       id="path21" />
    <path
       class="cls-15"
       d="M545.66,220.54c3.42-1.32,6.96-2.16,10.52-2.53l3.72-9.32,16.4,2.59.66,10.01c3.28,1.45,6.39,3.34,9.23,5.65l9.22-3.96,9.76,13.43-6.61,7.54c1.32,3.42,2.16,6.96,2.53,10.53l9.32,3.72-2.59,16.4-10.01.66c-1.45,3.28-3.33,6.38-5.65,9.23l3.96,9.22-13.43,9.76-7.54-6.61c-3.42,1.32-6.96,2.16-10.52,2.53l-3.72,9.32-16.4-2.59-.66-10.01c-3.28-1.45-6.39-3.34-9.23-5.65l-9.22,3.96-9.76-13.43,6.61-7.54c-1.32-3.42-2.16-6.96-2.53-10.52l-9.32-3.72,2.59-16.4,10.01-.66c1.45-3.28,3.34-6.38,5.65-9.23l-3.96-9.22,13.43-9.76,7.55,6.61h0ZM550.54,243.85c-7.96,5.78-9.72,16.92-3.93,24.88,5.78,7.96,16.92,9.72,24.88,3.93,7.95-5.78,9.72-16.92,3.93-24.88-5.78-7.95-16.92-9.72-24.88-3.93Z"
       id="path22" />
    <path
       class="cls-19"
       d="M177.57,67.82c2.52-.98,5.13-1.59,7.75-1.86l2.74-6.87,12.08,1.91.49,7.38c2.41,1.07,4.71,2.46,6.8,4.16l6.79-2.92,7.19,9.89-4.87,5.56c.98,2.52,1.59,5.13,1.86,7.75l6.87,2.74-1.91,12.08-7.38.49c-1.07,2.41-2.46,4.7-4.16,6.8l2.92,6.79-9.89,7.19-5.56-4.87c-2.52.97-5.13,1.59-7.75,1.86l-2.74,6.87-12.08-1.91-.49-7.38c-2.41-1.07-4.7-2.46-6.8-4.16l-6.79,2.92-7.19-9.89,4.87-5.56c-.97-2.52-1.59-5.13-1.86-7.75l-6.87-2.74,1.91-12.08,7.38-.49c1.07-2.41,2.46-4.7,4.16-6.8l-2.92-6.79,9.89-7.19,5.56,4.87h0ZM181.16,84.99c-5.86,4.26-7.16,12.47-2.9,18.33,4.26,5.86,12.47,7.16,18.33,2.9,5.86-4.26,7.16-12.47,2.9-18.33-4.26-5.86-12.47-7.16-18.33-2.9Z"
       id="path23" />
    <path
       class="cls-8"
       d="M468.76,253.9c1.92-.74,3.9-1.21,5.9-1.42l2.09-5.23,9.2,1.45.37,5.62c1.84.81,3.58,1.87,5.18,3.17l5.17-2.22,5.48,7.53-3.71,4.23c.74,1.92,1.21,3.91,1.42,5.91l5.23,2.09-1.45,9.2-5.62.37c-.81,1.84-1.87,3.58-3.17,5.18l2.22,5.17-7.53,5.48-4.23-3.71c-1.92.74-3.91,1.21-5.9,1.42l-2.09,5.23-9.2-1.45-.37-5.62c-1.84-.81-3.58-1.87-5.18-3.17l-5.17,2.22-5.48-7.53,3.71-4.23c-.74-1.92-1.21-3.91-1.42-5.9l-5.23-2.09,1.45-9.2,5.62-.37c.81-1.84,1.87-3.58,3.17-5.18l-2.22-5.17,7.53-5.48,4.23,3.71h0ZM471.49,266.98c-4.46,3.25-5.45,9.49-2.21,13.96,3.24,4.46,9.49,5.45,13.96,2.21,4.46-3.24,5.45-9.49,2.21-13.96-3.24-4.46-9.49-5.45-13.96-2.21Z"
       id="path24" />
    <path
       class="cls-19"
       d="M206.05,229.8c1.51-.59,3.08-.95,4.65-1.12l1.64-4.12,7.25,1.15.29,4.43c1.45.64,2.82,1.47,4.08,2.5l4.07-1.75,4.32,5.94-2.92,3.33c.59,1.51.95,3.08,1.12,4.65l4.12,1.64-1.15,7.25-4.43.29c-.64,1.45-1.47,2.82-2.5,4.08l1.75,4.07-5.94,4.32-3.33-2.92c-1.51.58-3.08.95-4.65,1.12l-1.64,4.12-7.25-1.15-.29-4.43c-1.45-.64-2.82-1.47-4.08-2.5l-4.07,1.75-4.32-5.94,2.92-3.33c-.59-1.51-.96-3.08-1.12-4.65l-4.12-1.64,1.15-7.25,4.43-.29c.64-1.45,1.47-2.82,2.5-4.08l-1.75-4.07,5.94-4.32,3.34,2.92h0ZM208.21,240.11c-3.52,2.56-4.3,7.48-1.74,11,2.56,3.52,7.48,4.3,11,1.74,3.52-2.56,4.3-7.48,1.74-11-2.56-3.52-7.48-4.3-11-1.74Z"
       id="path25" />
    <path
       class="cls-8"
       d="M276.23,230.9c3.84-1.48,7.81-2.42,11.81-2.83l4.17-10.46,18.4,2.91.74,11.23c3.68,1.62,7.17,3.74,10.36,6.34l10.34-4.44,10.95,15.07-7.42,8.46c1.49,3.84,2.42,7.81,2.83,11.81l10.46,4.17-2.91,18.4-11.23.74c-1.62,3.68-3.74,7.16-6.34,10.36l4.44,10.34-15.07,10.95-8.47-7.42c-3.84,1.48-7.81,2.42-11.81,2.83l-4.17,10.46-18.4-2.91-.74-11.24c-3.68-1.62-7.16-3.74-10.36-6.34l-10.34,4.44-10.95-15.07,7.42-8.46c-1.48-3.84-2.42-7.81-2.83-11.81l-10.46-4.17,2.91-18.4,11.24-.74c1.62-3.68,3.74-7.16,6.34-10.36l-4.44-10.34,15.07-10.95,8.47,7.42h0ZM281.7,257.05c-8.93,6.49-10.9,18.99-4.41,27.91,6.49,8.93,18.99,10.9,27.91,4.41,8.93-6.49,10.9-18.99,4.41-27.91-6.49-8.93-18.99-10.9-27.91-4.41Z"
       id="path26" />
  </g>
  <g
     id="Floor">
    <path
       class="cls-3"
       d="M648.69,432.13c0,.14-145.23.26-324.33.26s-324.36-.12-324.36-.26,145.19-.26,324.36-.26,324.33.12,324.33.26Z"
       id="path27" />
  </g>
  <g
     id="Goal">
    <g
       id="g34">
      <polyline
         class="cls-11"
         points="518.64 377.47 505.01 432.77 515.66 432.77 529.73 381.59 520.22 378.87"
         id="polyline27" />
      <polyline
         class="cls-11"
         points="586.68 377.47 600.32 432.77 589.67 432.77 575.6 381.59 585.11 378.87"
         id="polyline28" />
      <g
         id="g33">
        <circle
           class="cls-7"
           cx="554.21"
           cy="346.81"
           r="57.58"
           transform="translate(-82.91 493.46) rotate(-45)"
           id="circle28" />
        <g
           class="cls-4"
           id="g29">
          <circle
             cx="554.21"
             cy="346.81"
             r="57.58"
             transform="translate(-82.91 493.46) rotate(-45)"
             id="circle29" />
        </g>
        <circle
           class="cls-7"
           cx="552.66"
           cy="339.52"
           r="57.58"
           transform="translate(-94.82 301.17) rotate(-28.17)"
           id="circle30" />
        <circle
           class="cls-5"
           cx="552.66"
           cy="339.52"
           r="38.57"
           transform="translate(-48 584.27) rotate(-53.73)"
           id="circle31" />
        <path
           class="cls-7"
           d="M571.53,339.99c-.26,10.42-8.92,18.66-19.34,18.4-10.42-.26-18.66-8.92-18.4-19.34.26-10.42,8.92-18.66,19.34-18.4,10.42.26,18.66,8.92,18.4,19.34Z"
           id="path31" />
        <polygon
           class="cls-11"
           points="593.84 298.38 592.58 286.06 605.41 272.99 605.98 286.26 593.84 298.38"
           id="polygon31" />
        <polygon
           class="cls-11"
           points="620.91 289.27 608.26 287.92 595.24 299.84 607.92 301.51 620.91 289.27"
           id="polygon32" />
        <g
           class="cls-4"
           id="g32">
          <path
             d="M555.19,339.3l44.85-32.5c-1.44-2.27-3.28-4.56-5.34-6.86l-39.44,36.37-.07,2.99Z"
             id="path32" />
        </g>
        <path
           class="cls-3"
           d="M606.54,284.42c-6.12,5.83-12.24,11.65-18.37,17.48-9.71,9.24-19.43,18.48-29.14,27.72-2.23,2.12-4.47,4.25-6.7,6.37-2.12,2.02,1.03,5.3,3.16,3.27,6.12-5.83,12.25-11.65,18.37-17.48,9.71-9.24,19.43-18.48,29.14-27.73,2.23-2.12,4.47-4.25,6.7-6.37,2.12-2.02-1.03-5.3-3.16-3.28h0Z"
           id="path33" />
      </g>
    </g>
  </g>
  <g
     id="Character_1">
    <g
       id="g70">
      <path
         class="cls-9"
         d="M367.21,213.08c-23.11-18.75-36.36-46.56-36.36-76.29,0-54.14,44.05-98.19,98.19-98.19s98.19,44.05,98.19,98.19c0,16.3-4.08,32.45-11.8,46.7l-26.94-14.59c5.3-9.79,8.1-20.9,8.1-32.12,0-37.25-30.31-67.56-67.56-67.56s-67.56,30.31-67.56,67.56c0,20.46,9.12,39.59,25.03,52.5l-19.3,23.79Z"
         id="path34" />
      <g
         class="cls-4"
         id="g35">
        <path
           d="M485.06,87.75l2.51,2.86,8.96-7.88c-.31-.67-.66-1.31-1.03-1.94.02-.05.03-.09.02-.1-.01-.01-.04-.01-.08,0-.53-.89-1.11-1.76-1.75-2.59,0,0,0,0,0,0,0,0,0,0,0,0-1.37-1.77-3-3.38-4.85-4.87,0,0,0-.01,0-.01,0,0-.01,0-.02,0-.62-.5-1.25-.98-1.92-1.45l-8.96,7.88,2.45,2.79-2.89,2.54c-9.18-8.8-21.13-14.77-34.49-16.47l.22-5.37,4.5.19.58-13.86c.15-.09.23-.16.21-.18,0-.03-.08-.04-.2-.02v-.05c-5.38-1.81-11.17-1.96-17.28-.72v.12c-.05,0-.09,0-.09.02-.01.02.02.06.08.11l-.58,13.86,4.39.18-.22,5.21c-14.01.14-26.97,5.04-37.27,13.21l-2.7-3.42,2.98-2.36-7.4-9.36c-.68.28-1.34.59-1.99.93-.05-.03-.09-.04-.1-.03-.02.01-.01.04,0,.08-.92.48-1.82,1.01-2.68,1.61,0,0,0,0,0,0,0,0,0,0,0,0-1.84,1.28-3.53,2.82-5.11,4.59,0,0-.01,0-.01,0,0,0,0,.01,0,.02-.53.59-1.05,1.2-1.55,1.85l7.4,9.36,2.91-2.3,2.95,3.74c-10.44,10.45-17.15,24.69-17.81,40.62-1.4,33.71,24.79,62.17,58.5,63.58,33.71,1.4,62.17-24.79,63.58-58.5.65-15.69-4.68-30.25-13.96-41.47l2.74-2.4Z"
           id="path35" />
      </g>
      <g
         id="g69">
        <g
           id="g40">
          <g
             id="g36">
            <rect
               class="cls-3"
               x="385.67"
               y="78.85"
               width="7.09"
               height="11.07"
               transform="translate(31.51 259.47) rotate(-38.31)"
               id="rect35" />
            <path
               class="cls-7"
               d="M393.6,78.09l-11.46,9.06-7.4-9.36c3.23-4.16,7.02-7.25,11.46-9.06l7.4,9.36Z"
               id="path36" />
          </g>
          <path
             class="cls-3"
             d="M384.06,85.63c-.18.15-2.07-1.91-4.21-4.59-2.14-2.68-3.73-4.97-3.55-5.12.18-.15,2.07,1.91,4.21,4.59,2.14,2.68,3.73,4.97,3.55,5.12Z"
             id="path37" />
          <path
             class="cls-3"
             d="M386.24,83.9c-.19.14-2.04-2.03-4.16-4.84-2.12-2.81-3.7-5.16-3.57-5.27.23-.2,2.13,1.96,4.25,4.76,2.12,2.81,3.67,5.21,3.48,5.35Z"
             id="path38" />
          <path
             class="cls-3"
             d="M389.15,81.6c-.19.14-2.05-2.06-4.17-4.91-2.12-2.85-3.7-5.25-3.55-5.37.22-.18,2.11,2.02,4.23,4.86,2.12,2.85,3.68,5.28,3.5,5.41Z"
             id="path39" />
          <path
             class="cls-3"
             d="M391.8,79.45c-.18.14-2.06-1.94-4.18-4.65-2.13-2.71-3.7-5.03-3.51-5.17.18-.14,2.06,1.94,4.18,4.65,2.12,2.71,3.7,5.03,3.51,5.17Z"
             id="path40" />
        </g>
        <g
           id="g45">
          <g
             id="g41">
            <rect
               class="cls-3"
               x="473.48"
               y="83.68"
               width="7.09"
               height="11.07"
               transform="translate(229.09 -327.97) rotate(48.68)"
               id="rect40" />
            <path
               class="cls-7"
               d="M483.55,93.27l-9.65-10.97,8.96-7.88c4.32,3.01,7.61,6.63,9.65,10.97l-8.96,7.88Z"
               id="path41" />
          </g>
          <path
             class="cls-3"
             d="M475.52,84.13c-.16-.17,1.8-2.17,4.36-4.45,2.57-2.28,4.77-3.99,4.93-3.81.16.17-1.8,2.17-4.36,4.45-2.57,2.28-4.77,3.99-4.93,3.81Z"
             id="path42" />
          <path
             class="cls-3"
             d="M477.36,86.22c-.15-.18,1.92-2.14,4.61-4.4,2.69-2.26,4.96-3.96,5.08-3.84.21.22-1.84,2.23-4.53,4.49-2.69,2.26-5.01,3.93-5.16,3.75Z"
             id="path43" />
          <path
             class="cls-3"
             d="M479.8,89.01c-.15-.18,1.95-2.16,4.68-4.43,2.73-2.27,5.05-3.97,5.18-3.83.19.21-1.9,2.21-4.63,4.48-2.73,2.27-5.08,3.95-5.22,3.77Z"
             id="path44" />
          <path
             class="cls-3"
             d="M482.1,91.54c-.15-.18,1.83-2.15,4.42-4.42,2.6-2.26,4.82-3.96,4.98-3.78.15.18-1.83,2.15-4.42,4.42-2.6,2.26-4.82,3.96-4.98,3.78Z"
             id="path45" />
        </g>
        <g
           id="g52">
          <g
             id="g46">
            <rect
               class="cls-3"
               x="430.69"
               y="61.69"
               width="8.4"
               height="13.1"
               transform="translate(3.21 -18.02) rotate(2.38)"
               id="rect45" />
            <path
               class="cls-7"
               d="M443.69,65.98l-17.28-.72.59-14.11c6.11-1.24,11.89-1.09,17.28.72l-.59,14.11Z"
               id="path46" />
          </g>
          <path
             class="cls-3"
             d="M444.48,51.93c.12.17-3.72,2.08-8.87,1.86-5.15-.16-8.84-2.35-8.71-2.51.1-.25,3.81,1.51,8.74,1.66,4.93.21,8.76-1.27,8.84-1.01Z"
             id="path47" />
          <path
             class="cls-3"
             d="M432.12,65.46c-.23,0-.31-2.73-.17-6.07.14-3.34.44-6.04.68-6.03.23,0,.31,2.73.17,6.07-.14,3.34-.44,6.04-.68,6.03Z"
             id="path48" />
          <path
             class="cls-3"
             d="M435.41,65.68c-.23,0-.31-2.74-.17-6.1.14-3.36.44-6.07.68-6.06.23,0,.31,2.74.17,6.1-.14,3.36-.44,6.07-.68,6.06Z"
             id="path49" />
          <path
             class="cls-3"
             d="M438.7,65.76c-.23,0-.31-2.74-.17-6.1.14-3.36.44-6.07.68-6.06.23,0,.31,2.74.17,6.1-.14,3.36-.44,6.07-.68,6.06Z"
             id="path50" />
          <path
             class="cls-3"
             d="M441.43,65.87c-.23,0-.3-2.96-.15-6.59.15-3.63.46-6.56.7-6.55.23,0,.3,2.96.15,6.59-.15,3.63-.46,6.56-.7,6.55Z"
             id="path51" />
          <path
             class="cls-3"
             d="M429.02,65.27c-.23,0-.3-2.96-.15-6.59.15-3.63.46-6.56.7-6.55.23,0,.3,2.96.15,6.59-.15,3.63-.46,6.56-.7,6.55Z"
             id="path52" />
        </g>
        <path
           class="cls-7"
           d="M492.26,134.28c-1.4,33.71-29.87,59.9-63.58,58.5-33.71-1.4-59.9-29.87-58.5-63.58,1.4-33.71,29.87-59.9,63.58-58.5,33.71,1.4,59.9,29.87,58.5,63.58Z"
           id="path53" />
        <g
           id="g54">
          <circle
             class="cls-5"
             cx="431.25"
             cy="131.25"
             r="51.31"
             transform="translate(33.5 343.38) rotate(-45)"
             id="circle53" />
          <path
             class="cls-3"
             d="M482.51,133.39s-.03-.28-.05-.83c-.02-.58-.04-1.39-.06-2.44-.01-.54-.02-1.14-.04-1.8-.04-.66-.16-1.38-.24-2.15-.18-1.56-.34-3.36-.85-5.33-.74-3.99-2.4-8.74-5.12-13.82-2.74-5.05-6.78-10.38-12.38-14.99-5.58-4.57-12.71-8.56-21.04-10.39-2.09-.39-4.2-.91-6.41-1.01-1.1-.08-2.2-.24-3.31-.26-1.12.01-2.24.02-3.37.03-.57.02-1.14-.01-1.7.04l-1.71.19c-1.14.14-2.3.23-3.45.41-2.27.52-4.62.88-6.87,1.71-2.31.64-4.5,1.67-6.75,2.64-1.1.54-2.16,1.17-3.25,1.76-1.11.56-2.13,1.27-3.16,1.99-2.13,1.33-4.01,3.03-5.97,4.66-1.79,1.82-3.66,3.6-5.23,5.69-3.2,4.08-6.04,8.64-7.85,13.7-1.87,5.03-2.99,10.42-3.29,15.93-.16,5.52.51,10.98,1.95,16.16,1.38,5.2,3.83,9.98,6.68,14.31,1.39,2.21,3.1,4.14,4.74,6.1,1.82,1.79,3.56,3.64,5.56,5.15.96.8,1.92,1.59,2.98,2.24,1.04.68,2.04,1.4,3.09,2.02,2.16,1.15,4.26,2.37,6.51,3.19,2.17,1.02,4.48,1.57,6.7,2.28,1.13.28,2.28.46,3.4.7l1.69.33c.56.1,1.13.12,1.7.18,1.13.11,2.25.21,3.36.32,1.11.06,2.22,0,3.32.01,2.21.08,4.35-.26,6.47-.47,8.46-1.14,15.89-4.52,21.83-8.61,5.96-4.13,10.43-9.1,13.58-13.91,3.13-4.83,5.18-9.43,6.25-13.34.67-1.92.98-3.7,1.29-5.24.15-.77.32-1.47.42-2.13.07-.65.13-1.25.19-1.79.11-1.04.2-1.84.27-2.42.06-.55.12-.83.12-.83,0,0,0,.28-.03.83-.04.58-.1,1.39-.18,2.44-.04.54-.09,1.14-.15,1.8-.08.66-.24,1.37-.38,2.14-.29,1.55-.57,3.34-1.22,5.29-1.03,3.96-3.05,8.61-6.17,13.51-3.14,4.88-7.62,9.93-13.63,14.14-5.99,4.17-13.5,7.63-22.08,8.81-2.15.22-4.32.58-6.56.5-1.11,0-2.24.06-3.37,0-1.13-.1-2.26-.21-3.41-.31-.57-.06-1.15-.08-1.72-.18l-1.71-.33c-1.14-.24-2.31-.42-3.45-.7-2.26-.71-4.6-1.27-6.81-2.29-2.29-.83-4.42-2.06-6.62-3.23-1.07-.64-2.09-1.37-3.14-2.05-1.08-.66-2.05-1.46-3.03-2.27-2.04-1.53-3.81-3.4-5.66-5.22-1.66-1.99-3.41-3.95-4.82-6.2-2.9-4.4-5.39-9.26-6.81-14.55-1.47-5.26-2.15-10.81-1.99-16.42.31-5.6,1.45-11.08,3.35-16.19,1.85-5.15,4.73-9.79,7.99-13.92,1.59-2.12,3.5-3.92,5.32-5.77,2-1.66,3.91-3.38,6.07-4.73,1.04-.73,2.08-1.45,3.21-2.01,1.11-.59,2.18-1.24,3.3-1.78,2.29-.98,4.52-2.03,6.86-2.67,2.29-.84,4.67-1.2,6.97-1.72,1.17-.19,2.34-.27,3.5-.41l1.73-.19c.58-.05,1.16-.02,1.73-.04,1.15,0,2.29-.02,3.42-.03,1.13.03,2.25.19,3.36.28,2.23.11,4.37.65,6.49,1.05,8.44,1.89,15.64,5.96,21.27,10.62,5.64,4.7,9.68,10.11,12.41,15.23,2.7,5.14,4.33,9.95,5.03,13.98.49,1.99.62,3.81.78,5.37.07.78.17,1.5.2,2.17,0,.66,0,1.26,0,1.8,0,1.05-.02,1.86-.02,2.44,0,.55-.04.83-.04.83Z"
             id="path54" />
        </g>
        <g
           id="g62">
          <path
             class="cls-3"
             d="M475.06,132.27c-4.68-.12-8.47-.5-8.47-.85,0-.35,3.8-.7,8.48-.78,4.68-.08,8.47.3,8.47.85,0,.55-3.8.9-8.47.78Z"
             id="path55" />
          <path
             class="cls-3"
             d="M461.68,162.78c-3.24-3.38-5.67-6.32-5.42-6.56.25-.25,3.19,2.18,6.57,5.41,3.38,3.23,5.81,6.17,5.42,6.56-.39.39-3.33-2.03-6.57-5.41Z"
             id="path56" />
          <path
             class="cls-3"
             d="M430.71,175.07c.07-4.68.41-8.47.76-8.47.35,0,.74,3.78.87,8.46.13,4.67-.21,8.48-.76,8.48-.55,0-.94-3.79-.87-8.47Z"
             id="path57" />
          <path
             class="cls-3"
             d="M400.06,162.03c3.34-3.28,6.25-5.74,6.5-5.49.25.24-2.14,3.21-5.34,6.63-3.19,3.42-6.11,5.88-6.5,5.49-.39-.39,2-3.35,5.34-6.63Z"
             id="path58" />
          <path
             class="cls-3"
             d="M387.43,131.2c4.68.02,8.47.32,8.48.67,0,.35-3.78.78-8.45.96-4.67.18-8.48-.12-8.49-.67,0-.55,3.79-.98,8.46-.96Z"
             id="path59" />
          <path
             class="cls-3"
             d="M400.13,100.4c3.31,3.31,5.81,6.19,5.57,6.44-.24.25-3.23-2.11-6.69-5.27-3.45-3.16-5.94-6.04-5.56-6.44.38-.4,3.38,1.96,6.69,5.26Z"
             id="path60" />
          <path
             class="cls-3"
             d="M430.82,87.44c.03,4.68-.23,8.48-.58,8.49-.35.01-.82-3.77-1.05-8.45-.23-4.67.03-8.48.58-8.49.55-.02,1.02,3.77,1.05,8.45Z"
             id="path61" />
          <path
             class="cls-3"
             d="M461.76,99.8c-3.27,3.35-6.13,5.87-6.38,5.64-.25-.24,2.07-3.26,5.19-6.75,3.12-3.49,5.98-6.01,6.38-5.63.4.38-1.92,3.4-5.19,6.74Z"
             id="path62" />
        </g>
        <path
           class="cls-8"
           d="M446.67,104.61c-.06,7.53-.6,15.05-1.62,22.5-.37,2.7-.81,5.42-1.94,7.9-1.13,2.48-3.04,4.71-5.59,5.67-2.55.96-5.75.38-7.42-1.77l16.57-34.31Z"
           id="path63" />
        <g
           id="g68">
          <g
             id="g65">
            <polygon
               class="cls-7"
               points="430.3 127.16 450.24 96.57 437.52 131.52 431.7 133 430.3 127.16"
               id="polygon63" />
            <g
               class="cls-6"
               id="g64">
              <polygon
                 points="450.24 96.57 435.09 128.05 437.52 131.52 450.24 96.57"
                 id="polygon64" />
            </g>
          </g>
          <g
             id="g67">
            <g
               id="g66">
              <path
                 class="cls-2"
                 d="M437.7,133.25c-.14,3.31-2.93,5.88-6.25,5.75-3.31-.14-5.88-2.93-5.75-6.25.14-3.31,2.93-5.88,6.25-5.75,3.31.14,5.88,2.93,5.75,6.25Z"
                 id="path65" />
              <path
                 class="cls-3"
                 d="M437.7,133.25c-.08,0-.06-.54-.29-1.44-.23-.89-.79-2.18-2.07-3.2-1.24-1.02-3.3-1.63-5.32-.96-2.01.61-3.8,2.65-3.88,5.11-.12,2.46,1.49,4.64,3.44,5.42,1.97.84,4.07.4,5.39-.51,1.36-.91,2.03-2.15,2.33-3.01.3-.88.33-1.42.41-1.41.04,0,.13.54-.09,1.5-.22.94-.85,2.34-2.3,3.41-1.41,1.07-3.76,1.66-6.03.75-2.24-.84-4.14-3.34-3.99-6.18.09-2.84,2.19-5.17,4.49-5.82,2.33-.72,4.63.06,5.94,1.24,1.36,1.19,1.88,2.64,2.01,3.59.14.97,0,1.51-.03,1.51Z"
                 id="path66" />
            </g>
            <path
               class="cls-11"
               d="M436.17,133.18c-.1,2.46-2.18,4.38-4.65,4.28-2.46-.1-4.38-2.18-4.28-4.65.1-2.46,2.18-4.38,4.65-4.28,2.46.1,4.38,2.18,4.28,4.65Z"
               id="path67" />
          </g>
        </g>
      </g>
      <path
         class="cls-9"
         d="M467.06,148.43l-3.8,65.67c-.14,2.45,2.11,4.36,4.5,3.82l66.96-15.15c3.02-.68,3.91-4.55,1.49-6.49l-63.15-50.52c-2.34-1.87-5.82-.32-5.99,2.67Z"
         id="path69" />
    </g>
    <path
       class="cls-17"
       d="M116.68,273.45l37.65,48.62c1.11,1.43,3.25,1.49,4.44.12l39.4-45.66c1.57-1.82.34-4.65-2.06-4.74l-77.06-2.96c-2.43-.09-3.87,2.7-2.38,4.62Z"
       id="path70" />
    <path
       class="cls-17"
       d="M375.86,353.64c-20.2,28.83-53.66,47.73-91.46,47.73h-97.46v30.63h97.46c46.77,0,88.33-22.69,114.28-57.64l-22.81-20.72Z"
       id="path71" />
    <g
       id="g73">
      <path
         class="cls-17"
         d="M390.4,195.03c-26.07-29.14-63.93-47.51-106.01-47.51-78.43,0-142.24,63.81-142.24,142.24h30.63c0-61.54,50.07-111.61,111.61-111.61,32.83,0,62.4,14.25,82.84,36.9l23.17-20.02Z"
         id="path72" />
      <path
         class="cls-17"
         d="M399.62,206.47l-23.97,19.12c12.81,18.17,20.35,40.31,20.35,64.18,0,18.85-4.71,36.63-12.99,52.22l23.87,20.02c12.54-21.19,19.76-45.88,19.76-72.24,0-31.08-10.03-59.86-27.01-83.29Z"
         id="path73" />
    </g>
    <g
       class="cls-4"
       id="g74">
      <polygon
         points="143.55 269.77 174.38 270.9 175.78 264.01 144.86 262.79 143.55 269.77"
         id="polygon73" />
    </g>
    <g
       class="cls-4"
       id="g75">
      <polygon
         points="258.68 181.14 263.65 180.08 273.37 153.85 303.78 152.14 275.3 147.52 267.93 148.46 258.68 181.14"
         id="polygon74" />
    </g>
    <rect
       class="cls-18"
       x="30.24"
       y="401.36"
       width="152.94"
       height="30.92"
       id="rect75" />
    <g
       id="g137">
      <g
         id="g80">
        <g
           id="g79">
          <path
             class="cls-10"
             d="M265.46,86.47s-1.06.46-1.23-.96c-.17-1.42,2.79-4.38,3.74-5.31.95-.94,2.3-.74,3.5-.47,1.2.27,6.11.76,7.74,1.81,1.63,1.05,4.12,6.29,4.64,6.54s15.85,1.05,15.85,1.05l-.66,12.56s-15.04-2.87-18.02-4.73c-2.98-1.86-2.59-2.61-3.43-4.34s-1.76-3.58-1.76-3.58l-1.41-.23-2.26,1.25s-.27,3.19-2.5,3.11l-1.09-.58s-.73.84-1.56-.46-.67-1.55-.67-1.55c0,0-.88,1.08-1.82-.26-.95-1.34.95-3.84.95-3.84Z"
             id="path75" />
          <path
             class="cls-12"
             d="M281.97,91.8s-.05.03-.17.05c-.11.03-.28.05-.5.05-.44,0-1.1-.1-1.8-.51-.7-.4-1.44-1.12-1.91-2.12-.49-.99-.72-2.22-.79-3.52l.24.15c-1.01.47-2.19.77-3.44.81-.87.03-1.73-.06-2.53-.27-.38-.11-.82-.17-1.16-.54-.18-.17-.22-.53-.04-.74.16-.2.37-.28.54-.35,1.38-.56,2.65-.99,3.72-1.32,1.08-.33,1.96-.55,2.57-.69.61-.14.96-.19.96-.17,0,.03-.33.13-.93.31-.6.18-1.47.44-2.53.8-1.06.36-2.31.81-3.67,1.39-.17.07-.32.15-.4.25-.07.1-.07.21.03.31.2.23.6.32.98.42.77.19,1.59.28,2.43.25,1.19-.04,2.34-.32,3.31-.76l.23-.11v.25c.07,1.27.28,2.45.73,3.41.43.96,1.1,1.65,1.76,2.06.65.41,1.28.55,1.7.58.42.03.66-.01.66.01Z"
             id="path76" />
          <path
             class="cls-12"
             d="M274.21,83.19s-.52.33-1.45.28c-.46,0-.99-.08-1.56-.04-.58.03-1.12.27-1.57.79-.93,1.04-2.05,1.73-2.88,2.08-.85.36-1.41.43-1.42.39-.02-.06.52-.22,1.31-.62.79-.4,1.82-1.08,2.73-2.1.24-.25.51-.5.84-.65.32-.15.66-.21.97-.22.62-.02,1.15.09,1.6.12.89.11,1.41-.08,1.43-.03Z"
             id="path77" />
          <path
             class="cls-12"
             d="M271.05,86.53c.08.03-.54,1.44-1.95,2.65-1.41,1.22-2.9,1.62-2.91,1.53-.04-.1,1.33-.63,2.68-1.8,1.36-1.15,2.09-2.43,2.19-2.37Z"
             id="path78" />
          <path
             class="cls-12"
             d="M271.6,88.46c.09,0-.11,1.25-1.01,2.46-.89,1.22-2,1.79-2.04,1.71-.06-.09.91-.76,1.75-1.92.85-1.15,1.19-2.28,1.3-2.25Z"
             id="path79" />
        </g>
        <polygon
           class="cls-8"
           points="317.89 61.99 304.17 86.73 282.89 86.37 281.29 99.15 303.25 104.53 312.3 94.6 317.89 61.99"
           id="polygon79" />
        <path
           class="cls-3"
           d="M305.88,90.93c-.11,0-.24-1.01-.71-2.16-.46-1.15-1.08-1.97-1-2.04.06-.07.84.69,1.33,1.91.5,1.21.47,2.29.38,2.29Z"
           id="path80" />
      </g>
      <g
         id="g97">
        <g
           id="g96">
          <path
             class="cls-3"
             d="M323.1,18.19c-1.74.23-3.54-1.01-3.95-2.72-.4-1.7.65-3.63,2.31-4.2-1.1-1.09-1.41-2.9-.72-4.29.69-1.39,2.31-2.25,3.84-2.03.04-1.53.92-3.01,2.25-3.76,1.33-.75,3.06-.75,4.39,0,1.66-1.48,4.38-1.58,6.15-.24,1.48-.3,3.11.46,3.83,1.79.72,1.33.47,3.11-.59,4.19"
             id="path81" />
          <g
             id="g95">
            <g
               id="g93">
              <path
                 class="cls-10"
                 d="M338.21,4.46l-.78.02c-7.9.15-14.35,6.34-14.84,14.23-.45,7.33-.85,15.44-.73,19.37.26,8.13,8.42,9.24,8.42,9.24l-.5,9.78.96,7.46,18.76-8.45,1.06-35.47c.56-8.46-3.89-15.84-12.36-16.17Z"
                 id="path82" />
              <path
                 class="cls-12"
                 d="M330.21,47.29s5.2.21,10.6-3.33c0,0-2.52,6.3-10.65,5.72l.05-2.4Z"
                 id="path83" />
              <path
                 class="cls-3"
                 d="M325.54,27.04c0,.61.5,1.13,1.14,1.15.64.02,1.17-.46,1.18-1.07,0-.61-.5-1.13-1.14-1.15-.64-.02-1.17.46-1.18,1.07Z"
                 id="path84" />
              <path
                 class="cls-3"
                 d="M324.42,22.64c.15.15,1.01-.52,2.26-.54,1.25-.04,2.18.59,2.31.43.07-.07-.09-.34-.49-.62-.4-.28-1.07-.55-1.85-.53-.78.02-1.43.32-1.8.62-.38.3-.5.58-.43.65Z"
                 id="path85" />
              <path
                 class="cls-3"
                 d="M336.91,27.04c0,.61.5,1.13,1.14,1.15.64.02,1.17-.46,1.18-1.07,0-.61-.5-1.13-1.14-1.15-.64-.02-1.17.46-1.18,1.07Z"
                 id="path86" />
              <path
                 class="cls-3"
                 d="M336.71,22.64c.15.15,1.02-.52,2.26-.54,1.25-.04,2.18.59,2.31.43.07-.07-.09-.34-.49-.62-.4-.28-1.07-.55-1.85-.53-.78.02-1.43.32-1.8.62-.38.3-.5.58-.43.64Z"
                 id="path87" />
              <path
                 class="cls-3"
                 d="M332.35,32c0-.07-.77-.19-2.04-.33-.32-.03-.62-.08-.68-.3-.08-.23.05-.58.19-.95.29-.78.58-1.59.9-2.45,1.24-3.49,2.14-6.35,2-6.4-.14-.05-1.26,2.74-2.51,6.22-.3.86-.59,1.68-.86,2.46-.11.37-.31.78-.14,1.26.09.24.33.41.53.46.21.06.39.06.54.06,1.27.04,2.05.03,2.06-.04Z"
                 id="path88" />
              <path
                 class="cls-3"
                 d="M335.53,17.85c.17.31,1.24-.05,2.55-.12,1.32-.1,2.43.13,2.55-.2.05-.16-.19-.44-.67-.68-.48-.24-1.2-.43-1.99-.38-.79.05-1.47.32-1.9.62-.43.3-.62.61-.54.76Z"
                 id="path89" />
              <path
                 class="cls-3"
                 d="M324.26,17.49c.27.28,1.29-.04,2.53-.07,1.24-.07,2.29.15,2.53-.16.1-.15-.07-.43-.53-.69-.46-.26-1.22-.46-2.07-.43-.85.04-1.59.31-2.01.61-.43.3-.57.6-.45.73Z"
                 id="path90" />
              <path
                 class="cls-3"
                 d="M323.3,14.95s2.05-5.13,4.48-6.37c2.95-1.5,4.29,1.74,7.11.9,2.82-.85,5.63-2.28,8.57-.15,3.22,2.34,1.76,4.05,2.03,7.65,1.08,14.61,3.83,18.7,4.46,11.79.07-.76,2.15-1.4,2.4-4.59.32-4.14.38-9.17-.6-12.09-.83-2.46-2.27-4.14-4.84-5.98-4.05-2.9-9.54-2.86-13.25-2.41-3.72.45-10.82,4.87-10.35,11.24Z"
                 id="path91" />
              <path
                 class="cls-10"
                 d="M349.42,28.56c.03-1.26,1.09-2.27,2.34-2.17,1.52.11,3.22.94,3.18,4.08-.07,5.56-5.64,4.35-5.65,4.19,0-.11.07-3.76.12-6.09Z"
                 id="path92" />
              <path
                 class="cls-12"
                 d="M350.53,32.58s.1.07.26.15c.16.08.43.13.72.02.59-.21,1.1-1.14,1.14-2.14.02-.51-.08-.99-.25-1.39-.16-.41-.42-.7-.72-.75-.29-.07-.51.1-.58.26-.08.15-.04.27-.07.28-.02.01-.12-.09-.07-.32.02-.11.09-.24.22-.35.13-.11.33-.16.54-.13.43.03.81.43,1,.88.22.44.34.99.32,1.55-.05,1.12-.64,2.16-1.44,2.39-.39.1-.72-.02-.88-.16-.17-.14-.2-.26-.18-.27Z"
                 id="path93" />
            </g>
            <path
               class="cls-3"
               d="M349.1,17.79c-.71.51-1.47,1.03-2.33,1.13-.87.1-1.87-.38-2.04-1.24-.07-.39.01-.84-.25-1.13-.31-.35-.87-.23-1.33-.17-1.61.2-3.54-1.55-3.98-3.11-.4.63-1.3.83-1.93.44-.63-.39-.86-.62-1.36-1.16-.5-.55-1.19-1.04-1.93-.92-.41.07-.79.32-1.2.29-.73-.05-1.1-.9-1.23-1.62-.12-.72-.23-1.57-.85-1.95-.58-.35-1.32-.13-1.99-.02-.67.11-1.54-.03-1.73-.68-.1-.34.04-.71.23-1.01.84-1.38,2.72-2.02,4.22-1.45.51-1.85,2.2-3.31,4.1-3.55,1.9-.24,3.9.76,4.85,2.43,1.15-1.09,2.85-1.57,4.41-1.25,1.55.32,2.92,1.44,3.55,2.9,1.35-.38,2.9.11,3.78,1.2.88,1.09,1.03,2.71.37,3.94,1.01.55,1.89,1.53,1.93,2.68.04,1.15-1.06,2.32-2.17,2.04.47.89.12,2.11-.73,2.63-.86.52-2.1.25-2.67-.58"
               id="path94" />
            <path
               class="cls-11"
               d="M331.02,6.84s0,.03,0,.1c0,.07.01.17.04.3.06.26.17.63.42,1.06.26.42.66.91,1.26,1.29.59.39,1.39.67,2.29.61l-.1-.12c-.16.48-.11,1.05.14,1.53.23.49.6.93.98,1.35.2.2.37.44.63.63.26.18.57.28.89.31.63.07,1.33-.14,1.78-.68l-.21-.06c.16,1.1.81,2.2,1.82,2.85.54.37,1.19.59,1.84.56.64-.02,1.24-.22,1.79-.43l-.15-.06c.31.69.78,1.27,1.35,1.69.56.42,1.29.66,1.95.49,1.31-.3,2.16-1.41,2.31-2.44l-.12.06c.66.34,1.36.36,1.92.24.57-.11,1.01-.37,1.32-.62.31-.25.5-.51.61-.69.1-.19.14-.29.14-.29-.03-.02-.18.43-.8.91-.31.23-.74.46-1.29.56-.54.1-1.2.07-1.81-.26l-.11-.06-.02.12c-.16.96-.98,2-2.19,2.26-.6.15-1.24-.06-1.77-.46-.53-.4-.98-.96-1.27-1.6l-.05-.1-.1.04c-.55.21-1.12.39-1.71.41-.59.02-1.19-.17-1.7-.52-.96-.62-1.57-1.64-1.73-2.69l-.04-.26-.17.21c-.37.46-1,.66-1.57.6-.28-.03-.56-.12-.79-.27-.22-.15-.4-.38-.6-.59-.38-.41-.73-.83-.96-1.29-.23-.45-.29-.95-.15-1.39l.04-.13h-.14c-.85.09-1.62-.17-2.19-.53-.59-.36-.98-.82-1.25-1.22-.52-.83-.52-1.42-.56-1.41Z"
               id="path95" />
          </g>
        </g>
        <path
           class="cls-3"
           d="M332.7,36.27c.03-.21,1.4.05,2.6-.94,1.2-.99,1.33-2.48,1.52-2.45.09,0,.2.38.1,1-.09.61-.46,1.46-1.19,2.06-.73.6-1.59.76-2.16.7-.58-.06-.89-.28-.87-.37Z"
           id="path96" />
      </g>
      <g
         id="g104">
        <path
           class="cls-8"
           d="M297.91,111.41l5.75-8.09,8.86-26.76c1.81-4.65,3.37-10.56,5.57-14.97,1.07-2.15,2.89-3.85,5.09-4.82l3.76-1.67,2.25-3.59c-1.3,8.12,10.08,9.12,22.17-.96,0,0,3.99,2.7,9.62,7.37,2.46,2.04,4.7,4.28,5.63,7.65,1.69,6.13-5.58,24.25-13.49,41.31-2.37,5.1-10.66,24.21-10.66,24.21l-2.76.51s-33.2-6.87-38.36-11.27c-4.2-3.58-3.42-8.91-3.42-8.91Z"
           id="path97" />
        <path
           class="cls-3"
           d="M298.95,108.03s.09-.13.3-.35c.23-.24.54-.56.91-.96.83-.85,1.99-2.04,3.41-3.49l-.03.05c.66-2.04,1.46-4.48,2.34-7.19.91-2.72,1.84-5.73,2.77-8.92,1.81-6.25,3.52-11.91,5.1-15.88.77-1.99,1.49-3.57,1.99-4.65.25-.51.46-.92.62-1.23.14-.28.23-.42.24-.42.01,0-.05.16-.17.45-.14.32-.33.74-.55,1.26-.47,1.1-1.15,2.68-1.88,4.68-1.52,3.99-3.18,9.64-4.99,15.89-.93,3.19-1.87,6.22-2.8,8.93-.91,2.7-1.73,5.13-2.41,7.17v.03s-.03.02-.03.02c-1.46,1.42-2.64,2.58-3.49,3.42-.4.38-.71.68-.96.91-.22.21-.34.31-.35.3Z"
           id="path98" />
        <polygon
           class="cls-17"
           points="331.89 63.46 319.48 114.34 306.59 120.75 306.59 108.3 328.9 62.35 331.89 63.46"
           id="polygon98" />
        <g
           class="cls-4"
           id="g99">
          <path
             d="M308.15,109.76c3.52,1.32,6.69,3.42,9.8,5.53,3.11,2.12,6.21,4.28,9.66,5.78,3.45,1.5,7.31,2.3,10.99,1.54,3.68-.76,7.12-3.27,8.33-6.83l-38.79-6.02Z"
             id="path99" />
        </g>
        <polygon
           class="cls-8"
           points="326.93 54.93 330.1 50.07 331.35 56.73 334.51 53.15 350.19 45.81 352.92 51.64 335.59 61.89 330.78 61.53 327.28 57.37 326.93 54.93"
           id="polygon99" />
        <path
           class="cls-3"
           d="M326.93,54.93s.11.37.24,1c.16.76.34,1.62.53,2.56l-.31-.05c.27-.49.56-1.02.85-1.56.47-.84.92-1.62,1.32-2.34l.17-.3.11.32c.28.79.43,1.46.55,1.93.12.47.19.73.16.74-.03.01-.16-.23-.33-.69-.18-.45-.37-1.12-.67-1.87l.28.02c-.39.72-.82,1.52-1.28,2.36-.3.54-.6,1.06-.87,1.55l-.22.4-.09-.45c-.42-2.1-.52-3.63-.44-3.64Z"
           id="path100" />
        <path
           class="cls-17"
           d="M332.21,57.38l-2-.24c-.54.61-1.86,1.86-2.4,2.47v.06c.24,1.33.48,2.66.71,3.99,1.12-.05,2.24.04,3.33.27.67-1.17,1.17-2.05,1.84-3.22l-1.48-3.32Z"
           id="path101" />
        <polygon
           class="cls-17"
           points="332.36 57.79 334.58 56.7 335.33 60.58 333.49 60.75 332.36 57.79"
           id="polygon101" />
        <g
           class="cls-4"
           id="g102">
          <polygon
             points="334.28 55.14 334.28 63.93 350.62 53.13 335.41 61.99 334.28 55.14"
             id="polygon102" />
        </g>
        <path
           class="cls-3"
           d="M352.92,51.64s-.32.27-.95.72c-.63.43-1.56,1.05-2.73,1.75-2.33,1.43-5.68,3.19-9.29,5.27-1.53.89-2.97,1.78-4.26,2.65l-.21.15-.05-.25c-.5-2.68-.93-5.01-1.25-6.76l.18.06c-.71.66-1.28,1.2-1.72,1.61-.4.37-.63.56-.64.54-.01-.01.18-.23.56-.63.42-.43.98-.99,1.65-1.68l.14-.15.04.2c.35,1.75.82,4.07,1.37,6.74l-.26-.11c1.3-.89,2.74-1.8,4.27-2.68,3.62-2.08,6.99-3.8,9.35-5.17,1.19-.68,2.13-1.25,2.78-1.65.65-.41,1.01-.62,1.03-.6Z"
           id="path102" />
        <polygon
           class="cls-17"
           points="330.24 57.88 329.32 55.64 327.81 58.42 328.46 59.42 330.24 57.88"
           id="polygon103" />
        <path
           class="cls-3"
           d="M332.74,57.56c.08.07-1.02,1.34-2.19,3.02-1.18,1.68-2,3.14-2.09,3.09-.08-.04.6-1.59,1.8-3.3,1.19-1.71,2.42-2.88,2.49-2.81Z"
           id="path103" />
        <path
           class="cls-3"
           d="M331.63,63.99c-.03.1-.78-.02-1.69-.17-.92-.16-1.66-.29-1.65-.4,0-.1.78-.12,1.71.04.93.16,1.66.43,1.63.52Z"
           id="path104" />
      </g>
      <g
         id="g108">
        <g
           id="g107">
          <path
             class="cls-11"
             d="M251.99,105.9h0l-10.34-29.22c-.2-.63.19-1.29.83-1.43l23.88-6.24c.6-.13,1.19.21,1.39.79l10.87,32.92,33.7,22.14-1.62,1.65-8.62-2.1-50.09-18.5Z"
             id="path105" />
          <path
             class="cls-3"
             d="M310.71,126.5s-.06-.03-.17-.1c-.13-.08-.29-.18-.49-.31-.45-.29-1.08-.7-1.87-1.22-1.64-1.09-3.97-2.64-6.84-4.56-5.78-3.89-13.72-9.23-22.49-15.14-.61-.41-1.22-.82-1.78-1.21l-.05-.03-.02-.06c-3.17-9.58-6.02-18.16-8.08-24.37-1-3.08-1.82-5.58-2.39-7.33-.27-.85-.48-1.51-.63-1.99-.06-.21-.11-.38-.16-.52-.03-.12-.05-.18-.04-.18,0,0,.03.06.08.17.05.13.11.3.19.51.17.47.4,1.13.69,1.97.6,1.74,1.44,4.23,2.49,7.29,2.09,6.21,4.97,14.77,8.18,24.34l-.07-.09c.57.38,1.17.79,1.78,1.21,8.75,5.94,16.67,11.32,22.43,15.23,2.84,1.95,5.15,3.54,6.78,4.65.78.54,1.39.97,1.83,1.28.19.14.35.25.47.34.11.08.16.12.15.13Z"
             id="path106" />
          <path
             class="cls-3"
             d="M256.12,105.27c0-.1,4.69-.4,10.49-.68,5.8-.27,10.5-.42,10.51-.32,0,.1-4.69.4-10.49.68-5.8.27-10.5.42-10.51.32Z"
             id="path107" />
        </g>
        <path
           class="cls-8"
           d="M259.92,88.59c.42,1.33.18,2.58-.52,2.8-.7.22-1.61-.67-2.03-2s-.18-2.58.52-2.8c.7-.22,1.61.67,2.03,2Z"
           id="path108" />
      </g>
      <g
         id="g117">
        <g
           id="g112">
          <path
             class="cls-10"
             d="M285.64,88.75s-.89.44-1.03-.98c-.12-1.26,2.91-3.13,4.04-3.83,1.13-.7,3.52-.22,4.74-.06,1.65.21,5.49,1.93,6.71,3.4,1.24,1.49,2.09,5.29,2.54,5.65.45.36,15.71,6.36,15.71,6.36l-3.47,12.09s-14.01-6.18-16.49-8.67c-2.48-2.49-1.93-3.12-2.37-5.01-.43-1.88-.9-3.89-.9-3.89l-1.32-.54-2.48.7s-.3.94-.94,1.68c-.76.88-2.15.84-2.91-.03h0s-1.26.44-1.87-.98c-.25-.58-.07-1.47-.07-1.47,0,0-1.13.22-1.14-1.18,0-1.51,1.26-3.23,1.26-3.23Z"
             id="path109" />
          <path
             class="cls-12"
             d="M293.59,90.35c0,.06-.51.04-1.3.21-.78.17-1.84.57-2.75,1.38-.91.8-1.45,1.81-1.71,2.56-.27.76-.31,1.27-.37,1.26-.04,0-.09-.52.13-1.34.21-.8.74-1.89,1.72-2.75.97-.86,2.12-1.25,2.95-1.36.83-.11,1.35,0,1.34.04Z"
             id="path110" />
          <path
             class="cls-12"
             d="M292.45,87.76c0,.06-.56-.03-1.4.17-.84.18-1.94.72-2.88,1.64-.94.93-1.58,1.97-2.04,2.71-.46.75-.75,1.21-.79,1.19-.04-.02.17-.53.57-1.31.41-.78,1.03-1.87,2.01-2.84.99-.97,2.18-1.51,3.08-1.64.9-.14,1.46.05,1.44.08Z"
             id="path111" />
          <path
             class="cls-12"
             d="M292.23,84.93c0,.06-.48,0-1.21.13-.73.13-1.71.51-2.63,1.18-.92.68-1.63,1.45-2.15,2.01-.52.56-.85.9-.88.87-.04-.03.22-.43.69-1.03.47-.6,1.17-1.43,2.13-2.13.96-.71,2.02-1.07,2.81-1.14.79-.08,1.26.08,1.25.12Z"
             id="path112" />
        </g>
        <g
           id="g116">
          <g
             id="g114">
            <path
               class="cls-8"
               d="M357.35,57.47c4.29.84,7.08,4.61,7.96,9.32,1.24,6.69-14.09,38.29-16.95,45.18-3.01,7.27-9.67,8.86-13.54,8.77-3.88-.09-31.04-12.83-31.04-12.83l3.98-13.78,24.14,7.17,9.56-26.91"
               id="path113" />
            <path
               class="cls-3"
               d="M341.47,74.38s-.04.16-.15.48c-.11.33-.27.79-.48,1.4-.43,1.24-1.06,3.04-1.87,5.36-1.64,4.66-4.01,11.4-6.94,19.71l-.04.12-.12-.04c-6.94-2.05-15.13-4.47-24.15-7.13l.2-.11c-1.27,4.41-2.6,9.02-3.97,13.79l-.09-.21c6.34,2.94,13.13,6.03,20.2,9.01,2.87,1.19,5.72,2.38,8.6,3.29l1.08.31c.36.09.72.12,1.08.19.74.01,1.48-.02,2.22-.12,1.47-.18,2.89-.6,4.21-1.19,2.64-1.19,4.83-3.23,6.16-5.69.68-1.21,1.17-2.53,1.74-3.79.57-1.26,1.13-2.51,1.68-3.74,4.46-9.83,8.41-18.71,11.25-26.36,1.39-3.82,2.6-7.34,3.1-10.53.1-.8.17-1.58.06-2.31-.14-.73-.31-1.44-.53-2.09-.43-1.31-1-2.45-1.65-3.38-1.3-1.88-2.87-2.84-3.96-3.31-.55-.23-.99-.38-1.28-.45-.3-.08-.45-.13-.45-.13,0,0,.16.03.46.09.3.06.75.19,1.3.42,1.1.45,2.71,1.41,4.04,3.3.66.94,1.25,2.08,1.7,3.41.23.66.4,1.37.55,2.11.12.77.06,1.56-.04,2.37-.48,3.23-1.67,6.75-3.06,10.59-2.81,7.67-6.74,16.57-11.18,26.41-.55,1.23-1.11,2.48-1.67,3.74-.57,1.25-1.06,2.57-1.75,3.82-1.36,2.52-3.61,4.62-6.32,5.84-1.35.61-2.81,1.04-4.31,1.22-.75.1-1.51.14-2.27.13-.38-.07-.78-.11-1.15-.2l-1.1-.32c-2.91-.92-5.75-2.11-8.63-3.3-7.08-2.98-13.87-6.07-20.21-9.03l-.13-.06.04-.14c1.38-4.77,2.72-9.38,3.99-13.78l.05-.16.16.05c9,2.69,17.2,5.13,24.13,7.2l-.16.08c2.98-8.3,5.38-15.02,7.05-19.67.84-2.31,1.49-4.11,1.94-5.34.22-.6.39-1.06.51-1.39.12-.31.19-.47.19-.47Z"
               id="path114" />
          </g>
          <path
             class="cls-3"
             d="M335.75,111.41c-.11.02-.48-2.4-1.56-5.2-1.06-2.8-2.39-4.86-2.3-4.91.04-.02.42.46.94,1.3.52.85,1.15,2.07,1.69,3.48.54,1.42.88,2.75,1.05,3.73.18.98.21,1.59.17,1.6Z"
             id="path115" />
          <path
             class="cls-3"
             d="M355.68,57.53c.02.06-.89.36-2.25,1.04-.68.34-1.47.8-2.3,1.37-.82.58-1.69,1.28-2.53,2.08-.83.82-1.54,1.67-2.14,2.48-.59.82-1.07,1.59-1.43,2.27-.72,1.35-1.03,2.25-1.1,2.23-.02,0,.04-.24.17-.65.13-.41.36-1,.7-1.69.33-.7.8-1.5,1.38-2.35.6-.83,1.32-1.71,2.16-2.54.85-.82,1.74-1.52,2.59-2.1.86-.56,1.67-1.01,2.38-1.33.71-.32,1.29-.54,1.71-.66.41-.12.65-.18.65-.16Z"
             id="path116" />
        </g>
      </g>
      <g
         id="g136">
        <path
           class="cls-3"
           d="M220.48,185.18l-17.01-12.1s37.14-53.8,40.91-57.97c2.86-3.15,9.1-8.04,16.43-7.69,7.33.34,20.87,4.94,25.77,6.28,4.89,1.35,47.62,13.5,53.12,17.88,0,0-3.83,16.55-8.32,20.42-3.52,3.03-16,3.56-24.01,1.35-8.01-2.21-46.97-20.11-46.97-20.11l-39.91,51.93Z"
           id="path117" />
        <path
           class="cls-3"
           d="M230.39,202.23l20.42,7.35,17.47-62.44,37.21,5.62-32.68-30.69s-17.8,5.3-20.7,5.78c-3.72.62-8.67,8.18-10.28,16.14-1.4,6.92-11.43,58.24-11.43,58.24Z"
           id="path118" />
        <path
           class="cls-11"
           d="M293.57,151.41c-.05.09-9.65-5.38-21.44-12.21-11.79-6.83-21.31-12.44-21.26-12.52.05-.09,9.65,5.38,21.44,12.21,11.79,6.83,21.31,12.44,21.26,12.52Z"
           id="path119" />
        <g
           class="cls-4"
           id="g120">
          <path
             d="M231.67,170.61s6.82-31.43,13.18-35.21c0,0-6.1,16.31-6.72,26.79l-6.46,8.41Z"
             id="path120" />
        </g>
        <path
           class="cls-11"
           d="M254.91,129.02c0,.05-.74-.07-2.02.18-1.28.23-3.08.98-4.81,2.55-1.75,1.55-3.21,3.99-4.29,6.89-1.06,2.91-2.02,6.19-2.84,9.67-1.59,6.99-2.51,13.43-3.4,18.05-.42,2.31-.82,4.18-1.1,5.46-.15.61-.26,1.1-.35,1.47-.08.34-.13.51-.15.51-.01,0,.01-.18.08-.52.07-.37.17-.87.28-1.49.24-1.29.59-3.16.99-5.48.82-4.63,1.71-11.07,3.3-18.08.83-3.5,1.8-6.78,2.88-9.71,1.1-2.92,2.61-5.4,4.43-6.96,1.79-1.58,3.65-2.3,4.96-2.5,1.31-.21,2.05-.04,2.05-.04Z"
           id="path121" />
        <g
           id="g128">
          <path
             class="cls-3"
             d="M235.89,189.99l-4.41,19.75s-21.39,3.45-22.35,7.09l38.53,7.61,6.28-30.94-18.05-3.52Z"
             id="path122" />
          <path
             class="cls-8"
             d="M243.73,210.42c1.72.85.52,3.55-1.25,2.75-1.92-.94-.37-3.78,1.39-2.68"
             id="path123" />
          <path
             class="cls-11"
             d="M247.67,224.44l.51-3.14-37.13-6.12s-1.86.41-1.91,1.65l38.53,7.61Z"
             id="path124" />
          <path
             class="cls-5"
             d="M230.9,209.42c-.03.19.89.46,1.7,1.25.83.77,1.14,1.68,1.33,1.64.78-.84-2.24-3.7-3.03-2.88Z"
             id="path125" />
          <path
             class="cls-5"
             d="M226.52,210.29c-.08.17.67.65,1.15,1.58.51.91.5,1.8.69,1.83,1.01-.53-.85-3.97-1.84-3.41Z"
             id="path126" />
          <path
             class="cls-5"
             d="M223.27,214.68c.94-.14.04-3.82-.86-3.51.07.1.88,3.39.86,3.51Z"
             id="path127" />
          <path
             class="cls-5"
             d="M232.13,204.95c.12-.04,3.87.94,3.95,1.02.3-.92-3.77-1.97-3.95-1.02Z"
             id="path128" />
        </g>
        <g
           id="g134">
          <path
             class="cls-3"
             d="M214.58,163.09l-12.71,15.75s-20.7-6.39-23.17-3.56l31.16,23.91,18.51-25.58-13.78-10.52Z"
             id="path129" />
          <path
             class="cls-8"
             d="M212.53,184.88c1.17,1.52-1.11,3.41-2.34,1.91-1.3-1.69,1.34-3.56,2.43-1.78"
             id="path130" />
          <path
             class="cls-11"
             d="M209.85,199.19l1.85-2.59-30.56-21.96s-1.85-.46-2.44.64l31.16,23.91Z"
             id="path131" />
          <path
             class="cls-5"
             d="M201.48,178.29c-.11.16.6.81.97,1.87.4,1.05.28,2.01.47,2.06,1.07-.41-.36-4.31-1.44-3.93Z"
             id="path132" />
          <path
             class="cls-5"
             d="M197.18,177.14c-.15.12.31.89.34,1.93.05,1.04-.35,1.84-.19,1.94,1.14-.02,1-3.93-.14-3.87Z"
             id="path133" />
          <path
             class="cls-5"
             d="M192.32,179.62c.91.29,1.73-3.41.79-3.53.02.12-.72,3.43-.79,3.53Z"
             id="path134" />
        </g>
        <g
           class="cls-4"
           id="g135">
          <path
             d="M290.35,149.54s-22.57-8.83-28.54-13.02c-5.89-4.13-9.7-8.68-9.7-8.68l38.25,21.69Z"
             id="path135" />
        </g>
      </g>
    </g>
    <g
       id="Light_Bulb">
      <g
         id="g161">
        <g
           id="g159">
          <g
             id="g156">
            <path
               class="cls-7"
               d="M184.31,365.16c.39-19.19-14.63-34.67-33.57-34.57-18.93.1-34.6,15.73-35,34.92-.29,13.89,7.52,25.84,19.03,31.34-.08,4.12-.18,8.77-.18,8.77l30.05-.15s.28-4.92.44-9.31c11.16-5.83,18.95-17.53,19.23-30.99Z"
               id="path137" />
            <path
               class="cls-5"
               d="M146.21,405.28c.06-11.27.86-22.55.71-33.82-.03-2.28-.09-4.56-.31-6.82-.27-2.84-.86-5.99-3.44-7.56-1.12-.68-2.53-.94-3.8-.44-1.24.48-2.15,1.56-2.76,2.72-1.32,2.51-1.64,5.59-1.29,8.33.71,5.61,4.26,10.48,9.54,12.39,5.27,1.9,11.55.79,15.78-3.17,4.15-3.89,6.47-10.62,4.59-16.07-.81-2.35-2.78-4.98-5.56-4.66-2.7.31-4.04,3.02-4.67,5.4-.72,2.75-.9,5.69-1.16,8.5-.3,3.28-.51,6.57-.69,9.86-.36,6.77-.56,13.55-.93,20.32-.08,1.5-.17,2.99-.27,4.49-.04.5.74.47.77-.03.83-11.98.81-24,2.01-35.97.26-2.64.44-5.43,1.31-7.97.42-1.23,1.09-2.54,2.21-3.27,1.19-.77,2.62-.7,3.76.07,2.37,1.59,3.08,4.84,3.04,7.58-.04,2.83-.9,5.64-2.39,8.07-3.03,4.92-8.59,7.53-14.17,6.9-5.48-.61-9.97-4.26-11.72-9.53-.84-2.52-1.05-5.28-.49-7.92.56-2.63,2.26-6.34,5.53-5.34,3.13.96,3.78,4.6,4.05,7.47.19,1.99.25,4,.29,6,.19,10.44-.46,20.89-.66,31.34-.02,1.06-.03,2.11-.04,3.17,0,.51.77.47.77-.03h0Z"
               id="path138" />
            <g
               id="g155">
              <g
                 id="_x32_gGvdE.tif">
                <path
                   class="cls-11"
                   d="M142.61,423.23s1.21.8,1.93,1.75c.37.49.96.77,1.58.76l6.05-.04c.68,0,1.32-.34,1.71-.92.46-.67,1.27-1.46,2.1-1.64l-13.36.08Z"
                   id="path139" />
              </g>
              <path
                 class="cls-3"
                 d="M136.4,406.2c0,.12,1.21,9.69,1.67,13.34.19,1.5,1.08,2.83,2.43,3.45.49.23,1.06.38,1.71.37,2.59-.02,13.23-.08,13.23-.08,0,0,3.46-.02,4.29-2.8.88-2.93,2.67-14.44,2.67-14.44l-26.01.15Z"
                 id="path140" />
              <g
                 id="g142">
                <path
                   class="cls-8"
                   d="M160.61,419.2l-23.04.22c-.36,0-.65-.29-.64-.66v-.07c0-.37.31-.67.67-.67l23.04-.22c.36,0,.65.29.64.66v.07c0,.37-.31.67-.67.67Z"
                   id="path141" />
                <path
                   class="cls-3"
                   d="M160.61,419.2s.2.02.45-.21c.12-.12.21-.32.18-.56,0-.23-.17-.51-.47-.57-1.25,0-3.11.05-5.38.07-4.57.05-10.85.12-17.8.2-.18,0-.36.1-.46.25-.05.08-.08.16-.09.25,0,.1,0,.2.02.28.05.17.19.31.36.36.15.04.4.01.6.02.85,0,1.68-.01,2.5-.02,1.64-.01,3.22-.03,4.73-.04,3.01-.02,5.72-.04,8-.05,2.27,0,4.1-.01,5.39-.01.62,0,1.12,0,1.47,0,.16,0,.28,0,.38,0,.09,0,.13,0,.13.01,0,0-.04,0-.13.01-.1,0-.22,0-.38.01-.35,0-.84.02-1.47.03-1.29.02-3.13.05-5.39.09-2.28.03-4.99.06-8,.1-1.51.02-3.09.03-4.73.05-.82,0-1.65.02-2.5.03h-.32c-.1,0-.23.01-.35-.03-.24-.07-.43-.27-.5-.51-.04-.13-.03-.25-.02-.37.01-.13.06-.25.13-.36.14-.22.39-.36.65-.36,6.94-.05,13.23-.1,17.8-.13,2.28,0,4.11-.04,5.4,0,.34.08.52.39.52.65.02.26-.09.48-.22.6-.27.24-.49.18-.48.18Z"
                   id="path142" />
              </g>
              <g
                 id="g144">
                <path
                   class="cls-8"
                   d="M161.15,416.19l-24.02.23c-.36,0-.65-.29-.64-.66v-.07c0-.37.31-.67.67-.67l24.02-.23c.36,0,.65.29.64.66v.07c0,.37-.31.67-.67.67Z"
                   id="path143" />
                <path
                   class="cls-3"
                   d="M161.15,416.19s.21.03.46-.23c.12-.13.2-.34.17-.59-.02-.24-.22-.51-.54-.54-1.34.02-3.25.05-5.6.08-4.74.05-11.27.13-18.49.21-.19,0-.37.11-.47.27-.05.08-.08.17-.08.27,0,.12,0,.2.03.29.06.18.22.31.4.34.18.02.43,0,.64,0,.88,0,1.75-.02,2.6-.02,1.7-.01,3.34-.03,4.91-.04,3.13-.02,5.94-.04,8.31-.05,2.35,0,4.26-.01,5.6-.02.65,0,1.16,0,1.52,0,.16,0,.29,0,.4,0,.09,0,.13,0,.13.01,0,0-.05,0-.13.01-.1,0-.23,0-.4.01-.36,0-.87.02-1.52.04-1.34.02-3.25.05-5.6.09-2.37.03-5.19.06-8.31.1-1.56.02-3.21.03-4.91.05-.85,0-1.72.02-2.6.03-.23,0-.42.02-.68,0-.26-.04-.48-.23-.57-.48-.05-.12-.05-.27-.05-.38,0-.13.04-.27.12-.38.14-.23.4-.38.66-.38,7.21-.06,13.74-.1,18.49-.14,2.37,0,4.28-.02,5.61-.01.36.04.58.35.59.62.03.26-.07.5-.2.63-.28.26-.51.19-.49.2Z"
                   id="path144" />
              </g>
              <g
                 id="g146">
                <path
                   class="cls-8"
                   d="M161.52,413.17l-24.64.23c-.36,0-.65-.29-.64-.66v-.07c0-.37.31-.67.67-.67l24.64-.23c.36,0,.65.29.64.66v.07c0,.37-.31.67-.67.67Z"
                   id="path145" />
                <path
                   class="cls-3"
                   d="M161.52,413.17s.22.03.47-.24c.12-.13.19-.35.16-.6-.03-.24-.25-.51-.58-.52-1.37.02-3.33.05-5.74.09-4.86.05-11.54.13-18.93.21-.19,0-.38.11-.48.28-.05.08-.07.18-.08.28,0,.12,0,.2.04.29.07.18.24.3.43.32.2,0,.45,0,.67,0,.9,0,1.79-.02,2.66-.02,1.74-.01,3.42-.03,5.03-.04,3.2-.02,6.08-.04,8.51-.06,2.41,0,4.37-.01,5.74-.02.67,0,1.19,0,1.56,0,.17,0,.3,0,.41,0,.09,0,.14,0,.14.01,0,0-.05,0-.14.01-.1,0-.24,0-.41.01-.37,0-.89.02-1.56.04-1.37.02-3.33.05-5.74.09-2.43.03-5.31.07-8.51.1-1.6.02-3.28.04-5.03.05-.87,0-1.76.02-2.66.03-.23,0-.44,0-.69,0-.26-.03-.51-.2-.61-.45-.06-.12-.07-.27-.06-.38,0-.13.04-.27.11-.39.13-.24.4-.4.67-.4,7.38-.06,14.07-.11,18.93-.15,2.41,0,4.37-.01,5.74-.02.37.01.62.32.64.59.03.27-.05.52-.19.65-.28.27-.52.2-.5.21Z"
                   id="path146" />
              </g>
              <g
                 id="g148">
                <path
                   class="cls-8"
                   d="M162.08,410.15l-25.64.24c-.36,0-.65-.29-.64-.66v-.07c0-.37.31-.67.67-.67l25.64-.24c.36,0,.65.29.64.66v.07c0,.37-.31.67-.67.67Z"
                   id="path147" />
                <path
                   class="cls-3"
                   d="M162.08,410.15s.23.03.48-.25c.12-.14.19-.37.14-.63-.05-.25-.3-.51-.65-.47-1.42.02-3.45.05-5.95.09-5.04.06-11.97.13-19.63.22-.2,0-.39.12-.49.3-.09.17-.09.42,0,.59.09.18.28.29.48.28.23,0,.47,0,.7,0,.93,0,1.85-.02,2.76-.02,1.81-.01,3.55-.03,5.21-.04,3.32-.02,6.31-.04,8.83-.06,2.5,0,4.53-.02,5.95-.02.69,0,1.23,0,1.62,0,.18,0,.31,0,.42,0,.09,0,.14,0,.14.01s-.05,0-.14.01c-.11,0-.25,0-.42.02-.38,0-.93.02-1.62.04-1.42.02-3.45.05-5.95.09-2.52.03-5.51.07-8.83.11-1.66.02-3.41.04-5.21.06-.9,0-1.82.02-2.76.03-.23,0-.47,0-.7,0-.27,0-.55-.15-.67-.4-.06-.12-.09-.27-.09-.4,0-.13.03-.28.09-.4.13-.25.41-.43.69-.43,7.66-.06,14.6-.11,19.63-.15,2.5,0,4.53-.02,5.95-.02.38-.03.67.27.71.55.05.28-.03.54-.17.68-.13.15-.28.2-.37.22-.1.02-.14,0-.14,0Z"
                   id="path148" />
              </g>
              <path
                 class="cls-8"
                 d="M133.23,397.96c0,.25.42,6.11.65,9.12.08,1.1.66,2.1,1.57,2.69l1.33.88,25.57-.15,1.35-.88c.94-.62,1.56-1.63,1.68-2.75l.94-9.1-33.08.19Z"
                 id="path149" />
              <g
                 class="cls-4"
                 id="g150">
                <path
                   d="M138.42,419.36c2.45.55,4.91.58,7.61.56,2.18-.02,4.32.03,6.69-.04,1.74-.05,3.34-.14,5.07-.23.88-.04,1.84-.27,2.02-.45l-21.39.17Z"
                   id="path150" />
              </g>
              <g
                 class="cls-4"
                 id="g151">
                <path
                   d="M137.57,416.34c2.64.55,5.29.58,8.2.55,2.35-.02,4.66.02,7.22-.04,1.87-.05,3.6-.15,5.46-.23.95-.04,1.98-.27,2.18-.45l-23.06.18Z"
                   id="path151" />
              </g>
              <g
                 class="cls-4"
                 id="g152">
                <path
                   d="M137.63,413.34c2.64.55,5.29.58,8.2.55,2.35-.02,4.66.02,7.22-.04,1.87-.05,3.6-.15,5.46-.23.95-.04,1.98-.27,2.18-.45l-23.06.18Z"
                   id="path152" />
              </g>
              <g
                 class="cls-4"
                 id="g153">
                <path
                   d="M137.69,410.35c2.64.55,5.29.58,8.2.55,2.35-.02,4.66.02,7.22-.04,1.87-.05,3.6-.15,5.46-.23.95-.04,1.98-.27,2.18-.45l-23.06.18Z"
                   id="path153" />
              </g>
              <path
                 class="cls-3"
                 d="M164.72,408.11c0,.06-6.84.15-15.28.2-8.44.05-15.28.04-15.27-.02,0-.06,6.84-.15,15.28-.2,8.44-.05,15.27-.04,15.27.02Z"
                 id="path154" />
              <path
                 class="cls-3"
                 d="M166.13,397.59c0,.07-7.43.2-16.59.29-9.17.09-16.59.11-16.6.04,0-.07,7.43-.2,16.59-.29,9.16-.09,16.59-.11,16.59-.04Z"
                 id="path155" />
            </g>
          </g>
          <g
             class="cls-14"
             id="g157">
            <path
               class="cls-5"
               d="M143.65,340.82c-.02-1.47.97-3,2.39-4.23,2.03-1.76,4.67-2.56,7.3-2.4,7.73.46,13.02,2.85,18.26,8.98,1.78,2.08,3.84,5.91,3.67,8.82-.09,1.46-.7,2.88-1.82,3.84-2.91,2.49-6.93.46-9.27-2.17-2.18-2.44-3.91-5.54-6.91-6.85-2.47-1.08-5.32-.72-8-1.12-2.67-.4-5.59-2.13-5.62-4.87Z"
               id="path156" />
          </g>
          <g
             class="cls-14"
             id="g158">
            <path
               class="cls-5"
               d="M171.23,363.11c.79-2.28,3.55-3.74,5.39-3.33,1.52.39,2.84,1.49,3.42,2.95.7,1.76.22,3.99-1.19,5.3-1.41,1.32-3.68,1.59-5.27.6-1.6-.99-2.98-3.7-2.35-5.53Z"
               id="path157" />
          </g>
        </g>
        <path
           class="cls-3"
           d="M109.01,342.35c-.08.12-6.31-3.77-13.93-8.69-7.62-4.92-13.72-9.01-13.65-9.13.08-.12,6.31,3.77,13.93,8.69,7.61,4.92,13.72,9.01,13.64,9.13Z"
           id="path159" />
        <path
           class="cls-3"
           d="M116.33,329.29c-.12.08-2.73-3.32-5.84-7.6-3.11-4.28-5.53-7.83-5.42-7.91.12-.08,2.73,3.32,5.84,7.6,3.11,4.28,5.53,7.83,5.42,7.91Z"
           id="path160" />
        <path
           class="cls-3"
           d="M104.23,356.16c.09.05-1.11-.05-2.9-.26-1.82-.21-4.32-.52-7.08-.9-2.76-.38-5.26-.75-7.06-1.06-.9-.15-1.63-.29-2.13-.4-.25-.06-.44-.1-.57-.15-.07-.03-.11-.03-.16-.07.06-.1.06-.01.07-.03-.16-.02.22,0,.7.05.63.07,1.34.15,2.15.23,1.81.21,4.32.53,7.08.9,5.5.75,10.04,1.48,9.92,1.67Z"
           id="path161" />
      </g>
    </g>
  </g>
  <g
     id="Character_2">
    <g
       id="g227">
      <rect
         class="cls-18"
         x="183.18"
         y="401.36"
         width="250.38"
         height="30.63"
         id="rect161" />
      <path
         class="cls-18"
         d="M431.17,444.38l33.9-29.51c1-.87.95-2.44-.1-3.24l-34.97-26.84c-1.39-1.07-3.4-.05-3.37,1.7l1.07,56.36c.03,1.78,2.13,2.71,3.47,1.54Z"
         id="path162" />
      <g
         id="g225">
        <g
           id="g182">
          <path
             class="cls-3"
             d="M268.39,260.98l-4.71-1.41c-5.7-1.99-10.42-.46-13.51,3.4-3.09,3.85-4.28,8.97-4.11,13.9.11,3.18.73,6.53-.55,9.44-.71,1.62-1.95,2.95-3.13,4.27-1.18,1.32-2.35,2.73-2.88,4.42-.53,1.69-.26,3.75,1.08,4.9.57.48,1.3.79,1.75,1.38.63.82.57,1.96.64,2.99.28,4.86,4.21,9.27,9.01,10.1,4.8.84,9.99-1.98,11.9-6.46,1.38-3.22,1.13-6.87.99-10.37-.49-12.27.7-24.61,3.53-36.57Z"
             id="path163" />
          <g
             id="g181">
            <g
               id="g180">
              <path
                 class="cls-3"
                 d="M278.61,255.23c-4.08-1.21-7.93-.04-11.72,1.88-3.79,1.92-6.86,5.15-8.85,8.9-2.1,3.95-3.05,8.57-2.33,12.99.72,4.42,3.19,8.59,6.91,11.08,5.08,3.4,12.12,3.27,17.4.19,5.28-3.08,8.77-8.8,9.73-14.84.66-4.16.17-8.56-1.75-12.3-1.92-3.75-5.34-6.79-9.4-7.89"
                 id="path164" />
              <g
                 id="g179">
                <path
                   class="cls-3"
                   d="M265.09,267.96c.8-1.52.78-3.32,1.22-4.98.98-3.65,4.33-6.27,7.96-7.31,3.38-.96,7.28-.2,11.01,1.52,2.56,1.18,4.88,2.98,6.39,5.35,2.01,3.15,2.35,7.3.89,10.74l-18.68-5.05c-1.96,1.26-3.96,2.54-6.21,3.1-.66.17-1.37.26-2.02.08-.66-.19-1.25-.72-1.33-1.4-.09-.74.42-1.4.77-2.06Z"
                   id="path165" />
                <path
                   class="cls-13"
                   d="M285.05,262.5l-17.02,1.53c-1.62-.09-3.03,1.08-3.26,2.69l-4.1,35.94c-.28,2.45.26,4.93,1.53,7.05l1.34,2.23c3.05,5.09,10.42,5.49,13.8.62.24-.34.41-.64.49-.89.09-.32.21-.52.25-.79l.74-3.46c.54-3.18.96-6.42.95-6.39,0,0,6.89-.04,9.68-8.59,1.39-4.25,2.31-11.43,2.87-17.33.51-5.31-1.95-12.32-7.27-12.6Z"
                   id="path166" />
                <g
                   id="g174">
                  <g
                     id="g168">
                    <path
                       class="cls-3"
                       d="M289.11,282.2c-.07.6-.64,1.03-1.26.96-.62-.07-1.07-.6-1-1.2.07-.6.64-1.03,1.26-.96.62.07,1.07.6,1,1.2Z"
                       id="path167" />
                    <path
                       class="cls-3"
                       d="M290.19,278.56c-.16.12-.91-.64-2.12-.83-1.21-.21-2.19.27-2.3.11-.05-.08.13-.32.56-.54.43-.22,1.12-.39,1.87-.27.75.12,1.34.5,1.66.84.33.34.41.63.33.68Z"
                       id="path168" />
                  </g>
                  <g
                     id="g170">
                    <path
                       class="cls-3"
                       d="M278.33,280.91c-.07.6-.64,1.03-1.26.96-.62-.07-1.07-.6-1-1.2.07-.6.64-1.03,1.26-.96.62.07,1.07.6,1,1.2Z"
                       id="path169" />
                    <path
                       class="cls-3"
                       d="M278.68,276.88c-.16.12-.92-.64-2.12-.83-1.21-.21-2.19.27-2.3.1-.05-.08.13-.32.56-.54.43-.22,1.12-.39,1.87-.27.75.12,1.34.5,1.66.84.33.34.41.63.33.68Z"
                       id="path170" />
                  </g>
                  <path
                     class="cls-3"
                     d="M281.22,286.56c0-.07.78-.08,2.02-.04.31.02.62,0,.7-.2.11-.21.03-.56-.06-.95-.17-.79-.35-1.63-.54-2.5-.73-3.55-1.21-6.45-1.07-6.48.14-.03.86,2.83,1.59,6.38.17.87.34,1.71.5,2.51.06.37.2.8-.03,1.24-.12.22-.37.35-.58.37-.21.03-.38,0-.54-.01-1.24-.13-2-.25-1.99-.31Z"
                     id="path171" />
                  <path
                     class="cls-16"
                     d="M279.78,301s-5.96-.56-11.24-5c0,0,1.98,6.54,10.89,7.11l.35-2.11Z"
                     id="path172" />
                  <path
                     class="cls-16"
                     d="M280.25,289.39c-.34-.64-1.05-1.08-1.82-1.12-.53-.03-1.1.14-1.49.52-.39.38-.55.97-.33,1.43.25.51.92.73,1.52.65.6-.07,1.16-.37,1.69-.68.15-.08.3-.17.4-.3.1-.13.15-.32.07-.45"
                     id="path173" />
                  <path
                     class="cls-3"
                     d="M277.53,286.83c.2.02,0,1.33.97,2.44.97,1.11,2.4,1.19,2.38,1.37,0,.09-.35.21-.95.13-.58-.07-1.4-.39-2-1.07-.59-.68-.77-1.49-.73-2.04.04-.56.24-.86.32-.84Z"
                     id="path174" />
                </g>
                <path
                   class="cls-3"
                   d="M279.66,272.61c-.17.31-1.35-.04-2.8-.09-1.45-.08-2.66.15-2.8-.18-.06-.15.19-.43.7-.68.51-.24,1.29-.43,2.16-.39.87.04,1.62.3,2.11.59.49.29.71.59.63.74Z"
                   id="path175" />
                <path
                   class="cls-3"
                   d="M291.24,273.27c-.26.24-1.04-.18-2.04-.35-.99-.21-1.88-.11-2.03-.43-.06-.15.11-.41.53-.61.41-.2,1.05-.32,1.74-.18.68.13,1.24.48,1.55.81.31.34.38.64.27.76Z"
                   id="path176" />
                <path
                   class="cls-3"
                   d="M262.35,265.04c2.33-4.85,10.66-10.83,15.92-9.72l7.77,6.28c-.92,2.82-3.5,5.02-6.43,5.48-1.56.25-3.39.12-4.46,1.28-1.1,1.19-.83,3.18-1.87,4.42-1.44,1.72-4.64,1.18-5.8,3.09-.51.84-.46,1.93-.98,2.75-.7,1.1-3.88,2.17-5.06,1.61-1.18-.56-.89-2.66-1.13-3.81-.42-1.97,0-2.91.37-3.92.88-2.41.57-5.15,1.68-7.47Z"
                   id="path177" />
                <path
                   class="cls-13"
                   d="M264.93,281.79c.1-.65.23-1.58-.36-1.88-1.77-.89-5.48-1.53-6.21,2.83-.99,5.97,5.21,5.73,5.24,5.56.03-.13.96-4.26,1.32-6.52Z"
                   id="path178" />
                <path
                   class="cls-16"
                   d="M262.16,285.74s-.12.06-.3.11c-.18.05-.49.06-.78-.11-.59-.34-.96-1.43-.81-2.51.08-.55.27-1.04.54-1.44.25-.41.59-.66.91-.67.33-.02.52.21.57.39.05.18,0,.29.02.31.01.02.14-.08.14-.33,0-.12-.05-.28-.17-.41-.12-.14-.32-.23-.55-.25-.47-.04-.95.31-1.24.75-.32.43-.55.99-.64,1.6-.16,1.21.27,2.44,1.09,2.83.4.18.77.11.98,0,.21-.12.26-.24.24-.26Z"
                   id="path179" />
              </g>
              <path
                 class="cls-3"
                 d="M284.52,259.57c.26,2.51,3.6,6.09,5,8.19,2.68,4,3.14,5.28,2.14,13.39,1.8-2.63,3.26-5.24,3.52-8.41.27-3.18-.52-6.48-2.44-9.02-1.93-2.54-5.04-4.22-8.22-4.14"
                 id="path180" />
            </g>
            <path
               class="cls-3"
               d="M260.28,263.49c3.41-4.92,7.74-7.53,11.64-8.33"
               id="path181" />
          </g>
          <path
             class="cls-11"
             d="M258.97,286.61s-.1-.09-.25-.28c-.16-.19-.37-.48-.63-.87-.51-.78-1.13-2.01-1.58-3.64-.46-1.62-.7-3.62-.75-5.83-.13-2.23.36-4.69,1.26-7.08.91-2.4,2.12-4.55,3.48-6.31,1.36-1.76,2.79-3.17,4.13-4.19,1.34-1.02,2.55-1.65,3.41-2.02.43-.18.77-.32,1-.39.23-.08.36-.11.36-.1.01.03-.47.22-1.31.62-.83.41-2.01,1.07-3.31,2.1-1.3,1.03-2.69,2.44-4.02,4.19-1.32,1.74-2.51,3.87-3.4,6.23-.9,2.36-1.38,4.75-1.27,6.94.03,2.2.24,4.17.66,5.77.41,1.61.98,2.83,1.45,3.63.47.8.79,1.2.76,1.23Z"
             id="path182" />
        </g>
        <g
           id="g191">
          <path
             class="cls-3"
             d="M289.14,363.24s34.32-3.89,39.93-4.84c10.73-1.82,21.46-.08,26.02,9.14,2.07,4.2-.56,12.3-6.84,18.31-4.69,4.49-27.99,28.05-27.99,28.05l-19.97-16.67,24.72-19.22-47.91,6.73,12.05-21.5Z"
             id="path183" />
          <g
             id="g190">
            <path
               class="cls-3"
               d="M324.74,402.39l-12.85,13.56s9.71,17.82,7.58,20.56l-27.66-24.37,19.13-21.97,13.79,12.22Z"
               id="path184" />
            <path
               class="cls-8"
               d="M304.37,407.24c-.66-.33-1.55-.06-1.9.58-.34.64-.07,1.55.59,1.89.66.34,1.74.05,2.01-.62.27-.68-.12-1.73-.83-1.9"
               id="path185" />
            <path
               class="cls-8"
               d="M291.81,412.15l1.93-2.22,25.96,24.34s.4,1.13-.21,2.26l-27.68-24.39Z"
               id="path186" />
            <path
               class="cls-5"
               d="M312.46,416.21c-.12.13-.85-.41-1.89-.57-1.04-.19-1.89.09-1.96-.07-.1-.14.8-.75,2.06-.54,1.26.2,1.94,1.08,1.8,1.18Z"
               id="path187" />
            <path
               class="cls-5"
               d="M314.33,419.95c-.08.16-.87-.13-1.82.02-.96.13-1.61.63-1.74.51-.15-.09.45-.95,1.64-1.12,1.19-.18,2.03.46,1.92.59Z"
               id="path188" />
            <path
               class="cls-5"
               d="M312.97,424.82c-.15-.08.25-.91,1.24-1.33.98-.43,1.87-.15,1.83,0-.02.18-.77.21-1.58.56-.81.34-1.35.87-1.49.76Z"
               id="path189" />
            <path
               class="cls-5"
               d="M315.04,412.79c-.16.07-.62-.66-1.43-1.28-.8-.64-1.61-.91-1.58-1.09,0-.17,1.02-.15,1.96.6.95.74,1.21,1.72,1.05,1.77Z"
               id="path190" />
          </g>
          <path
             class="cls-11"
             d="M334,400.03s-.08.11-.25.3c-.2.21-.45.48-.76.81-.7.73-1.67,1.73-2.86,2.97-2.48,2.53-5.89,6-9.75,9.92l-.12.12-.13-.11c-.8-.67-1.64-1.37-2.49-2.08-4.8-4.03-9.14-7.69-12.33-10.36-1.54-1.32-2.8-2.39-3.71-3.17-.41-.36-.74-.65-1-.88-.23-.2-.34-.32-.33-.32s.14.08.38.27c.27.21.61.49,1.04.82.93.76,2.21,1.8,3.78,3.08,3.2,2.66,7.57,6.28,12.4,10.28.85.71,1.69,1.41,2.49,2.08h-.24c3.89-3.88,7.33-7.32,9.84-9.82,1.22-1.2,2.22-2.18,2.94-2.89.33-.31.59-.57.8-.77.19-.17.29-.26.3-.25Z"
             id="path191" />
        </g>
        <g
           id="g199">
          <path
             class="cls-3"
             d="M363.22,398.94l16.86,14.87,16.72,7.92c1.21.57,1.68,2.04,1.02,3.21h0c-.36.65-1.02,1.09-1.76,1.16-4.73.5-22.12,2.27-23.29,1.11-1.36-1.34-18.82-14.51-18.82-14.51l9.27-13.77Z"
             id="path192" />
          <path
             class="cls-8"
             d="M397.82,424.94l-26.21,1.3,1.16.98c.72.51.99.46,1.82.46,2.2-.01,8.28-.17,21.43-1.52.76-.08,1.44-.54,1.8-1.22h0Z"
             id="path193" />
          <g
             class="cls-1"
             id="g194">
            <path
               class="cls-5"
               d="M371.6,419.82c.66-.18,1.43.23,1.64.88.21.65-.2,1.44-.86,1.63-.66.19-1.6-.27-1.73-.94-.13-.67.4-1.57,1.08-1.6"
               id="path194" />
          </g>
          <path
             class="cls-5"
             d="M387,422.54c.13-.06-.44-1.2-.07-2.63.33-1.44,1.38-2.19,1.29-2.3-.03-.05-.35.05-.74.41-.39.35-.83.98-1.03,1.77-.19.79-.11,1.55.08,2.04.18.5.42.74.47.71Z"
             id="path195" />
          <path
             class="cls-5"
             d="M390.33,423.25c.14-.02.05-1.04.54-2.15.47-1.11,1.28-1.74,1.2-1.86-.05-.12-1.11.4-1.65,1.66-.56,1.26-.21,2.39-.09,2.34Z"
             id="path196" />
          <path
             class="cls-5"
             d="M382.13,422.33c.15-.01,0-1.58.62-3.37.59-1.79,1.67-2.95,1.55-3.05-.07-.11-1.38.97-2.02,2.89-.66,1.91-.27,3.57-.15,3.53Z"
             id="path197" />
          <path
             class="cls-5"
             d="M376.63,418.24c.14.04.54-1.24,1.54-2.52.98-1.29,2.12-2,2.04-2.13-.04-.12-1.38.45-2.43,1.83-1.07,1.37-1.28,2.81-1.15,2.82Z"
             id="path198" />
          <path
             class="cls-5"
             d="M372.87,415.6c.14.03.38-1.41,1.53-2.66,1.13-1.28,2.54-1.66,2.49-1.8-.01-.06-.39-.05-.95.15-.56.2-1.29.63-1.91,1.32-.62.68-.97,1.46-1.11,2.03-.15.58-.11.95-.05.96Z"
             id="path199" />
        </g>
        <g
           id="g201">
          <path
             class="cls-3"
             d="M234.37,378.5c.34.86-1.18,28.45,25,28.62,23.5.15,55.11-21.39,58.72-20.01,2.36.9,42.93,36.15,42.93,36.15l14.64-17.19s-37.54-35.83-41.23-38.41c-7.9-5.53-13.46-5.48-26.47-3.13-11.63,2.11-40.14,11.57-40.14,11.57l-2.74-2.33-30.72,4.72Z"
             id="path200" />
          <path
             class="cls-11"
             d="M299.53,367.31s.15-.07.44-.18c.29-.11.73-.29,1.31-.49,1.16-.42,2.88-1.01,5.13-1.64,2.25-.63,5.05-1.3,8.35-1.76,1.65-.23,3.43-.41,5.33-.37,1.89.03,3.9.27,5.95.76,4.09.98,8.39,3,12.14,6.27,3.63,3.38,7.4,7.06,11.43,10.9,8.03,7.71,16.88,16.2,26.19,25.14l.12.12-.11.13c-.64.75-1.33,1.56-2.02,2.37-2.17,2.55-4.42,5.15-6.65,7.54-2.19,2.39-4.24,4.8-6.29,7.18l.06.12c-8.26-7.14-16.01-13.85-22.99-19.88-3.49-3.02-6.78-5.87-9.85-8.53-1.53-1.33-3.01-2.61-4.43-3.84-.71-.61-1.4-1.21-2.08-1.8-.34-.29-.67-.59-1.01-.85-.35-.25-.72-.46-1.1-.63-1.54-.67-3.28-.58-4.63.08-1.38.67-2.67,1.31-3.88,1.9-2.41,1.18-4.49,2.2-6.18,3.03-1.68.82-2.99,1.45-3.88,1.89-.44.21-.77.37-1.01.48-.23.11-.35.15-.35.15,0,0,.11-.07.33-.18.23-.12.56-.29.99-.51.89-.45,2.18-1.1,3.86-1.94,1.69-.84,3.75-1.88,6.15-3.08,1.21-.6,2.5-1.24,3.87-1.93,1.4-.68,3.2-.79,4.81-.1.4.17.79.39,1.15.65.36.27.69.57,1.03.86.68.58,1.38,1.18,2.09,1.79,1.42,1.22,2.9,2.5,4.44,3.82,3.08,2.65,6.38,5.49,9.87,8.5,6.99,6.02,14.75,12.71,23.02,19.84l.06.12c2.03-2.41,4.13-4.88,6.16-7.44,1.99-2.56,4.01-4.99,6.18-7.52.68-.8,1.36-1.6,1.99-2.34v.25c-9.29-8.95-18.13-17.44-26.15-25.16-4.02-3.85-7.8-7.55-11.39-10.92-3.7-3.25-7.95-5.27-12-6.25-2.03-.49-4.01-.73-5.89-.78-1.88-.04-3.65.12-5.3.34-3.29.44-6.08,1.09-8.34,1.7-2.26.61-3.98,1.18-5.14,1.58-.57.2-1.01.35-1.32.46-.3.1-.45.15-.45.15Z"
             id="path201" />
        </g>
        <g
           id="g204">
          <path
             class="cls-17"
             d="M285.17,306.08s8.69,3.45,9.72,10.79c.86,6.12-1.05,22.42-1.02,23.52.03,1.32.45,2.13.92,2.64,1.06,1.14,1.65,2.64,1.64,4.19,0,1.18-.13,2.37-.53,3.05-1,1.67-10.6,12.8-10.6,12.8l-8.54-17.75s5.6-16.63,5.64-17.06c.04-.43,2.78-22.18,2.78-22.18Z"
             id="path202" />
          <path
             class="cls-13"
             d="M295,349.54c.37.05,12.89,8.95,12.89,8.95,0,0,3.06-5.91,4.43-6.08,1.37-.17,5.59,1.45,5.96,1.89.37.44,1.2.52,2.03.6.83.08,2.29,2.15,2.29,2.15l2.82,2.1s-.89,1.64-1.12,1.93c-.24.28-2.14-.51-2.11-.81.03-.3.24,1.85-1.22,1.92-1.46.06-3.35-.93-3.35-.93l-.49-2.49-3.63-2.36-.43,2.38s3.68.76,3.56,1.97c-.12,1.21-1.19,1.56-1.19,1.56l-3.04-.07-6.68,1.61s-17.54-3.88-18.18-5.87c-.64-1.99,2.33-9.13,7.47-8.44Z"
             id="path203" />
          <path
             class="cls-17"
             d="M295.13,345.39s2,1.44,3.47,4.82c.77,1.78,9.14,7.89,9.14,7.89l-6.78,5.49s-14.14.58-14.81-1.52c-.67-2.1,1.55-11.48,1.55-11.48l7.43-5.2Z"
             id="path204" />
        </g>
        <g
           id="g208">
          <path
             class="cls-8"
             d="M286.31,369.27h0c.17.62.79,1,1.42.86l24.6-5.38,21.14-3.85.18-1.88-20.2,2.9-26.23,5.86c-.67.15-1.08.83-.9,1.49Z"
             id="path205" />
          <path
             class="cls-8"
             d="M324.74,332.99l-11.37,29.11c-.46,1.16.53,2.38,1.76,2.17l25.1-4.63c.56-.09,1.03-.48,1.23-1.01l11.41-28.88c.23-.59-.24-1.22-.87-1.17l-25.9,3.39c-.61.05-1.14.44-1.37,1.01Z"
             id="path206" />
          <path
             class="cls-3"
             d="M327.31,331.98c.09.04-2.63,7.28-6.08,16.19-3.46,8.91-6.33,16.09-6.43,16.06-.09-.04,2.63-7.28,6.08-16.19,3.45-8.9,6.33-16.09,6.43-16.06Z"
             id="path207" />
          <path
             class="cls-5"
             d="M333.6,345.75c-.71,1.4-.66,2.85.1,3.24.76.38,1.96-.44,2.66-1.85s.66-2.85-.1-3.24c-.76-.38-1.96.44-2.66,1.85Z"
             id="path208" />
        </g>
        <g
           id="g224">
          <path
             class="cls-17"
             d="M286.72,364.73s-2.05-8.63-1.64-10.21c1.18-4.55,7.26-16.04,6.76-22.91-.51-6.88-6.67-25.54-6.67-25.54l-5.88-2.04c-2.38,5.18-11.6,4.02-19.13-2.05l-9.44,1.91-14.78,45.98-2.48,16.76c-5.99,7.81.91,11.93.91,11.93,0,0,11.38,3.59,20.39,1.98,6.73-1.2,16.55-5.95,18.75-7.67,5.27-4.13,13.62-3.84,13.62-3.84l-.4-4.29Z"
             id="path209" />
          <path
             class="cls-13"
             d="M270.22,365.16l6.16,2.51s3.42-2.04,3.93-2.22c.5-.19,7.29-1.12,8.66-1.07s2.85-.18,2.85-.18l-8.14,5.01-5.15,6.87s-2.13.74-4.39.76c-2.26.02-7.61-1.29-7.61-1.29l3.69-10.39Z"
             id="path210" />
          <g
             id="g212">
            <path
               class="cls-17"
               d="M251.9,303.76s-10.81.64-14.61,9.27c-2.54,5.76-7.76,31.1-8.54,35.74-.77,4.64.02,10.28,3.71,13.2,3.7,2.92,34.51,16.04,34.51,16.04l6.42-12.37-25.97-16.13h-.85s3.11-18.63,3.11-18.63"
               id="path211" />
            <path
               class="cls-3"
               d="M249.68,330.88s0,.11-.04.32c-.03.22-.08.54-.14.94-.13.84-.33,2.07-.58,3.66-.52,3.2-1.28,7.86-2.24,13.71l-.11-.13c.25,0,.55,0,.85,0h.03s.03.02.03.02c6.93,4.29,15.84,9.8,26,16.09l.13.08-.07.14c-2.04,3.94-4.19,8.08-6.41,12.37l-.08.15-.15-.06c-6.25-2.67-12.91-5.57-19.74-8.66-2.7-1.22-5.35-2.46-7.96-3.7-1.3-.63-2.58-1.26-3.84-1.93-1.24-.68-2.54-1.3-3.59-2.29-1.04-.98-1.8-2.2-2.34-3.48-.53-1.28-.86-2.63-1-3.98-.15-1.35-.15-2.7-.02-4.02.13-1.32.4-2.6.63-3.86.98-5.04,2.01-9.81,3.01-14.26,1-4.45,1.99-8.59,3.01-12.34.5-1.88,1.03-3.65,1.6-5.31.56-1.67,1.42-3.12,2.36-4.35.99-1.2,2.08-2.16,3.17-2.92,1.11-.73,2.18-1.31,3.19-1.72,2.01-.84,3.67-1.21,4.8-1.4.57-.09,1-.15,1.29-.17.29-.02.44-.02.44-.02,0,0-.15.02-.44.06-.29.04-.72.1-1.28.21-1.12.22-2.77.6-4.75,1.46-1,.41-2.05,1-3.14,1.73-1.07.76-2.15,1.71-3.11,2.9-.92,1.22-1.75,2.65-2.3,4.3-.56,1.65-1.07,3.43-1.57,5.3-1,3.75-1.97,7.89-2.96,12.34-.99,4.45-2,9.22-2.98,14.26-.23,1.26-.5,2.53-.62,3.83-.12,1.3-.12,2.62.03,3.94.3,2.62,1.24,5.34,3.24,7.24,1,.94,2.27,1.55,3.52,2.23,1.25.66,2.54,1.29,3.83,1.92,2.6,1.24,5.25,2.48,7.95,3.7,6.82,3.09,13.48,5.99,19.72,8.67l-.23.08c2.23-4.29,4.38-8.43,6.43-12.36l.06.22c-10.14-6.32-19.03-11.87-25.95-16.18l.06.02c-.3,0-.59,0-.85-.01h-.13s.02-.13.02-.13c1-5.84,1.79-10.49,2.34-13.69.28-1.58.49-2.81.64-3.65.07-.41.13-.72.17-.94.04-.21.07-.32.07-.32Z"
               id="path212" />
          </g>
          <path
             class="cls-3"
             d="M290.91,316.86s-.14.65-.27,1.83c-.06.59-.09,1.32-.07,2.16.03.84.13,1.8.28,2.86.29,2.11.71,4.64.77,7.48.08,2.83-.25,6.01-1.44,9.08-1.19,3.06-2.74,5.77-3.71,8.41-.99,2.64-.89,5.23-.77,7.34.13,2.13.33,3.85.46,5.03.06.56.1,1.02.14,1.37.03.31.04.48.02.48-.01,0-.05-.16-.1-.47-.05-.35-.12-.8-.21-1.36-.16-1.18-.41-2.9-.57-5.03-.15-2.11-.28-4.76.71-7.47.97-2.68,2.51-5.4,3.68-8.42,1.18-3.02,1.51-6.14,1.45-8.95-.03-2.82-.43-5.33-.68-7.45-.13-1.06-.21-2.03-.23-2.89,0-.85.04-1.59.13-2.18.09-.59.18-1.05.27-1.35.08-.3.13-.46.14-.46Z"
             id="path213" />
          <path
             class="cls-3"
             d="M252.74,321.85c-.07-.02.27-.98.45-2.58.1-.8.11-1.76.04-2.82-.1-1.06-.3-2.21-.66-3.38-.74-2.34-1.96-4.24-3-5.47-1.04-1.23-1.83-1.86-1.79-1.91.02-.02.22.13.58.41.37.27.85.73,1.4,1.33,1.1,1.2,2.4,3.12,3.15,5.53.37,1.2.57,2.38.65,3.46.05,1.08.02,2.06-.12,2.87-.04.41-.14.77-.21,1.08-.07.32-.15.59-.23.8-.15.43-.24.67-.26.66Z"
             id="path214" />
          <path
             class="cls-3"
             d="M267.73,347.59c-.02-.09,1.22-.2,2.93-1.14.44-.21.85-.55,1.33-.86.43-.37.93-.73,1.36-1.2.92-.89,1.81-2,2.57-3.28,1.56-2.53,2.34-5.15,2.74-7.05.37-1.92.4-3.13.47-3.13.03,0,.03.3.01.85,0,.55-.09,1.35-.23,2.32-.33,1.94-1.09,4.61-2.68,7.2-.77,1.3-1.69,2.43-2.64,3.33-.46.47-.97.84-1.42,1.2-.5.31-.93.64-1.39.84-.45.22-.85.42-1.23.53-.37.12-.69.24-.97.27-.55.1-.85.14-.85.11Z"
             id="path215" />
          <path
             class="cls-3"
             d="M239.73,352.87c-.07-.05,1.27-1.56,3.5-2.53,2.23-1,4.24-.97,4.23-.88.02.12-1.93.25-4.08,1.22-2.16.94-3.58,2.29-3.65,2.2Z"
             id="path216" />
          <g
             id="g222">
            <path
               class="cls-13"
               d="M293.42,365.83c-.08.44-.4.81-.84.91-.09.02-.18.03-.28.03-.67,0-.99-1.26-.99-1.26l-3.05.42s-4.36,5.53-5.9,7.1c-6.06,6.18-7.63,1.72-7.63,1.72l1.87-7.26,3.87-6.48s-.24.39-.15-.63c.09-1.02,1.88-1.19,1.88-1.19.12-.53,1.17-1.02,1.17-1.02l4.86-.9c1-.18,2.03.09,2.81.76l2.95,2.53s1.74,1.94,1.73,2.52c-.01.87-.91.95-.91.95,0,0,.22,1.56-.15,1.73-.37.17-1.25.08-1.25.08h0Z"
               id="path217" />
            <path
               class="cls-16"
               d="M282.07,364.43s.63-.2,1.64-.46c1.02-.26,2.45-.51,4.05-.46.8.02,1.55.11,2.23.24.67.15,1.34.23,1.65.58.15.17.18.39.12.58-.05.18-.16.32-.26.41-.22.18-.4.16-.39.19,0,.01.19.08.46-.09.13-.08.27-.23.36-.45.09-.21.08-.53-.11-.77-.19-.24-.48-.38-.79-.48-.31-.09-.63-.18-.98-.25-.69-.15-1.47-.25-2.28-.27-1.64-.05-3.1.24-4.12.56-1.02.32-1.6.65-1.58.68Z"
               id="path218" />
            <path
               class="cls-16"
               d="M282.65,367.53c.03.09,1.92-.58,4.31-1.16,2.39-.59,4.37-.87,4.36-.97,0-.04-.51-.02-1.31.08-.81.1-1.91.29-3.12.58-1.2.3-2.27.64-3.03.92-.76.28-1.21.5-1.2.54Z"
               id="path219" />
            <path
               class="cls-16"
               d="M293.36,365.72s-.02-.19-.09-.52c-.08-.33-.2-.8-.42-1.38-.11-.28-.24-.6-.42-.91-.18-.32-.45-.63-.77-.88-.62-.51-1.41-.99-2.31-1.26-.9-.26-1.77-.45-2.59-.45-.82,0-1.54.16-2.12.31-.59.16-1.05.31-1.37.42-.32.11-.49.18-.49.2.01.05.74-.15,1.91-.41.59-.12,1.29-.25,2.07-.24.77.01,1.63.2,2.5.46.87.26,1.61.7,2.23,1.19.64.45.93,1.11,1.17,1.65.46,1.1.65,1.83.72,1.81Z"
               id="path220" />
            <path
               class="cls-16"
               d="M283.97,359.27s.72-.15,1.88-.37c1.13-.17,2.88-.62,4.32.57,1.48,1.03,2.78,2.03,3.5,2.96.74.91.92,1.65.98,1.62.02,0-.01-.19-.12-.51-.11-.32-.32-.76-.68-1.25-.7-1-2.01-2.05-3.5-3.08-.38-.26-.77-.49-1.2-.64-.42-.16-.87-.19-1.26-.18-.8.02-1.5.17-2.09.29-1.16.27-1.85.55-1.84.58Z"
               id="path221" />
            <path
               class="cls-16"
               d="M285.09,370.23s.08-.1.21-.3c.15-.22.35-.51.59-.87.53-.75,1.33-1.83,2.44-3.07l-.06.03c.91-.12,1.94-.25,3.06-.4l-.14-.09c.07.24.15.47.27.69.12.22.27.45.54.6.14.07.31.08.44.06.14,0,.28-.04.42-.1.27-.12.48-.35.6-.62.03-.07.05-.14.07-.21v-.05s.02-.03.02-.03h0s0-.02,0-.02c.03-.03-.29.22-.15.11h0s0,0,0,0h.1c.14.02.28.03.42.03.14,0,.28,0,.43-.02.07,0,.15-.02.22-.04.07-.02.16-.04.25-.13.13-.17.14-.32.17-.47.02-.15.02-.3.02-.44,0-.29-.03-.58-.07-.88l-.13.17c.4-.05.81-.28.97-.7.07-.2.1-.42.02-.65-.07-.2-.17-.37-.28-.53-.42-.65-.92-1.25-1.44-1.85h0s0-.01,0-.01c-.5-.43-1.03-.89-1.57-1.35-.33-.29-.67-.57-1-.86-.33-.27-.64-.59-1.05-.8-.4-.21-.83-.34-1.27-.38-.44-.05-.88.04-1.27.12-1.61.3-3.14.59-4.58.86h-.02s-.01.01-.01.01c-.26.13-.49.27-.71.44-.21.17-.44.36-.53.68l.15-.1c-.56-.05-1.14.12-1.48.55-.35.42-.41.95-.38,1.42l.02-.07c-1.11,1.85-2.02,3.37-2.67,4.45-.3.51-.53.91-.71,1.22-.16.28-.24.43-.23.44,0,0,.11-.13.29-.4.19-.3.45-.69.77-1.19.67-1.07,1.61-2.56,2.76-4.39l.02-.03v-.04c-.02-.42.05-.9.34-1.23.28-.34.78-.49,1.25-.44h.12s.03-.1.03-.1c.05-.19.24-.37.44-.52.2-.15.43-.29.67-.41h-.03c1.44-.25,2.97-.53,4.58-.82.41-.08.79-.15,1.19-.11.4.03.79.15,1.15.34.36.18.66.48,1,.77.33.28.66.57,1,.86.54.46,1.07.92,1.57,1.35h-.01c.51.57,1.01,1.17,1.41,1.79.1.15.19.31.25.47.06.13.03.29-.02.44-.1.29-.41.47-.71.51l-.15.02.02.15c.04.28.06.56.07.84,0,.26-.01.58-.11.72,0,0-.05.04-.11.05-.06.02-.12.03-.18.04-.13.02-.26.02-.39.02-.13,0-.26,0-.39-.01h-.1s0,0,0,0h0c.14-.1-.19.14-.15.12h0s0,.01,0,.01v.02s-.01.04-.01.04c-.02.06-.03.11-.06.17-.09.22-.26.39-.46.49-.1.05-.21.07-.33.08-.12.02-.21.01-.3-.03-.37-.2-.56-.71-.69-1.12l-.03-.11h-.1c-1.11.17-2.14.32-3.05.45h-.04s-.02.03-.02.03c-1.1,1.27-1.87,2.37-2.37,3.15-.25.39-.43.69-.55.9-.12.21-.17.32-.16.33Z"
               id="path222" />
          </g>
          <g
             class="cls-4"
             id="g223">
            <path
               d="M278.87,334.23c-.53,2.52-1.53,5.18-2.93,7.34-1.68,2.57-3.78,3.93-6.4,5.55l-.2.08c3.13.03,6.23-1.52,8.09-4.04,1.85-2.52,2.41-5.95,1.44-8.92Z"
               id="path223" />
          </g>
        </g>
      </g>
      <g
         class="cls-4"
         id="g226">
        <rect
           x="420.41"
           y="402.81"
           width="6.21"
           height="27.09"
           id="rect225" />
      </g>
    </g>
  </g>
</svg>
