<?xml version="1.0" encoding="UTF-8"?>
<svg id="Camada_2" data-name="Camada 2" xmlns="http://www.w3.org/2000/svg" viewBox="0 0 106.98 94.21">
  <defs>
    <style>
      .cls-1 {
        fill: #c7d300;
      }

      .cls-2 {
        fill: #76b72a;
      }

      .cls-3 {
        fill: #00a194;
      }
    </style>
  </defs>
  <g id="Camada_1-2" data-name="Camada 1">
    <g>
      <path class="cls-2" d="m5.33,0c-.84.08-1.66.32-2.45.76C1.03,1.83,0,3.78,0,5.79,0,6.67.19,7.54.61,8.39l28.55,49.62,9.25-16.01,15.08-26.03L44.24,0H5.33Z"/>
      <path class="cls-3" d="m44.24,0l24.3,42h18.45l19.41-33.73c.35-.75.58-1.59.58-2.48,0-3.08-2.43-5.59-5.47-5.79h-57.27Z"/>
      <path class="cls-1" d="m85.62,42h-47.22l-9.25,16.01,19.55,33.67c.47.7,1.09,1.3,1.85,1.75.92.52,1.91.78,2.9.78,1.9,0,3.75-.96,4.86-2.63l28.67-49.58h-1.37Z"/>
    </g>
  </g>
</svg>