<?xml version="1.0" encoding="UTF-8"?>
<svg id="Camada_2" data-name="Camada 2" xmlns="http://www.w3.org/2000/svg" viewBox="0 0 91.63 190.09">
  <defs>
    <style>
      .cls-1 {
        fill: none;
        stroke: #000;
        stroke-miterlimit: 10;
        stroke-width: 2px;
      }

      .cls-2 {
        opacity: .09;
      }
    </style>
  </defs>
  <g id="Camada_1-2" data-name="Camada 1">
    <g class="cls-2">
      <path class="cls-1" d="m58.64,41.48l-18.96,32.47c-.88,1.5-3.05,1.49-3.91-.02l-18.54-32.46c-.82-1.43.22-3.22,1.87-3.22h37.68c1.66,0,2.69,1.8,1.86,3.23Z"/>
      <polyline class="cls-1" points="37.83 44.42 43.74 54.73 50.9 54.73"/>
      <line class="cls-1" x1="37.95" y1="44.42" x2="28.81" y2="59.76"/>
      <path class="cls-1" d="m80.29,4.23l-18.96,32.47c-.88,1.5-3.05,1.49-3.91-.02L38.89,4.22c-.82-1.43.22-3.22,1.87-3.22h37.68c1.66,0,2.69,1.8,1.86,3.23Z"/>
      <polyline class="cls-1" points="55.94 1 65.39 17.49 72.54 17.49"/>
      <line class="cls-1" x1="59.48" y1="7.18" x2="37.95" y2="44.42"/>
      <path class="cls-1" d="m65.96,89.03l-18.96,32.47c-.88,1.5-3.05,1.49-3.91-.02l-18.54-32.46c-.82-1.43.22-3.22,1.87-3.22h37.68c1.66,0,2.69,1.8,1.86,3.23Z"/>
      <polyline class="cls-1" points="41.61 85.8 51.07 102.29 58.22 102.29"/>
      <line class="cls-1" x1="45.15" y1="91.97" x2="23.62" y2="129.22"/>
      <polyline class="cls-1" points="39.19 102.29 73.8 102.29 91.63 102.29"/>
      <path class="cls-1" d="m45.27,91.97l19.59-33.88c.86-1.49-.21-3.36-1.94-3.36h-31.05"/>
      <path class="cls-1" d="m24.9,127.08l-10.87,18.62c-.5.86-1.75.85-2.24-.01L1.16,127.07c-.47-.82.12-1.84,1.07-1.84h21.6c.95,0,1.54,1.03,1.06,1.85Z"/>
      <polyline class="cls-1" points="10.94 125.22 16.36 134.68 20.46 134.68"/>
      <line class="cls-1" x1="12.97" y1="128.76" x2="7.52" y2="138.19"/>
      <line class="cls-1" x1="62.26" y1="134.68" x2="9.55" y2="134.68"/>
      <path class="cls-1" d="m40.91,169.83l-10.87,18.62c-.5.86-1.75.85-2.24-.01l-10.63-18.61c-.47-.82.12-1.84,1.07-1.84h21.6c.95,0,1.54,1.03,1.06,1.85Z"/>
      <polyline class="cls-1" points="28.87 171.71 32.37 177.43 36.47 177.43"/>
      <line class="cls-1" x1="28.98" y1="171.52" x2="23.53" y2="180.95"/>
      <line class="cls-1" x1="36.47" y1="177.43" x2="25.56" y2="177.43"/>
      <path class="cls-1" d="m64.39,137.42l-16.07,27.52c-.74,1.27-2.58,1.26-3.31-.02l-15.72-27.52c-.69-1.22.18-2.73,1.58-2.73h31.94c1.41,0,2.28,1.53,1.57,2.74Z"/>
      <polyline class="cls-1" points="43.74 134.68 51.76 148.66 57.82 148.66"/>
      <line class="cls-1" x1="46.74" y1="139.92" x2="28.98" y2="171.52"/>
      <line class="cls-1" x1="57.82" y1="148.66" x2="41.69" y2="148.66"/>
      <polyline class="cls-1" points="53.52 17.49 88.12 17.49 91.63 17.49"/>
    </g>
  </g>
</svg>